<svg width="1038" height="193" viewBox="0 0 1038 193" fill="none" xmlns="http://www.w3.org/2000/svg">
<path d="M2 52C2 40.9543 10.9543 32 22 32H216V188H2V52Z" fill="#05263B" stroke="white" stroke-width="3" stroke-linejoin="round" stroke-dasharray="10 10"/>
<path d="M420 55C420 43.9543 428.954 35 440 35H634V191H420V55Z" fill="#05263B" stroke="white" stroke-width="3" stroke-linejoin="round"/>
<path d="M822 55C822 43.9543 830.954 35 842 35H1036V191H822V55Z" fill="#05263B" stroke="white" stroke-width="3" stroke-linejoin="round" stroke-dasharray="10 10"/>
<rect x="113" width="76" height="70" rx="10" fill="#0D659D"/>
<rect x="532" width="76" height="70" rx="10" fill="#0D659D"/>
<rect x="939" width="76" height="70" rx="10" fill="#0D659D"/>
<path d="M138.438 19.0938C138.438 18.8037 138.554 18.5255 138.759 18.3204C138.965 18.1152 139.244 18 139.535 18H161.472C161.763 18 162.042 18.1152 162.247 18.3204C162.453 18.5255 162.569 18.8037 162.569 19.0938C162.569 20.2706 162.542 21.3906 162.494 22.4538C163.361 22.5969 164.19 22.9116 164.933 23.3795C165.676 23.8473 166.317 24.4587 166.819 25.1776C167.322 25.8966 167.674 26.7085 167.857 27.5656C168.039 28.4226 168.047 29.3074 167.882 30.1677C167.716 31.0281 167.379 31.8466 166.89 32.575C166.402 33.3033 165.772 33.9269 165.039 34.4088C164.305 34.8906 163.482 35.2211 162.618 35.3808C161.754 35.5404 160.867 35.5259 160.009 35.3381C158.276 39.4178 155.889 41.4128 153.794 41.9247V46.6781L156.92 47.4569C157.345 47.5619 157.747 47.7522 158.098 48.0147L162.13 51.0313C162.314 51.169 162.45 51.361 162.519 51.5801C162.587 51.7992 162.585 52.0343 162.512 52.2521C162.44 52.4699 162.3 52.6593 162.113 52.7935C161.926 52.9278 161.702 53 161.472 53H139.535C139.305 53 139.08 52.9278 138.893 52.7935C138.707 52.6593 138.567 52.4699 138.494 52.2521C138.421 52.0343 138.419 51.7992 138.488 51.5801C138.556 51.361 138.693 51.169 138.877 51.0313L142.909 48.0147C143.26 47.7522 143.661 47.5619 144.087 47.4569L147.213 46.6781V41.9247C145.118 41.4128 142.731 39.4178 140.998 35.3359C140.139 35.5247 139.251 35.54 138.387 35.3809C137.522 35.2218 136.698 34.8915 135.964 34.4096C135.229 33.9276 134.599 33.3038 134.11 32.5749C133.622 31.8461 133.284 31.0269 133.118 30.1659C132.952 29.3049 132.961 28.4194 133.144 27.5619C133.327 26.7043 133.68 25.8919 134.183 25.1728C134.687 24.4537 135.329 23.8424 136.073 23.375C136.817 22.9076 137.647 22.5936 138.515 22.4516C138.463 21.333 138.437 20.2135 138.438 19.0938V19.0938ZM138.655 24.65C137.51 24.8589 136.496 25.5126 135.834 26.4674C135.173 27.4223 134.919 28.5999 135.129 29.7414C135.338 30.8829 135.994 31.8946 136.951 32.5541C137.909 33.2135 139.09 33.4667 140.235 33.2578C139.504 30.9609 138.945 28.1259 138.655 24.65V24.65ZM160.774 33.2578C161.919 33.4667 163.1 33.2135 164.057 32.5541C165.015 31.8946 165.671 30.8829 165.88 29.7414C166.089 28.5999 165.836 27.4223 165.174 26.4674C164.513 25.5126 163.498 24.8589 162.354 24.65C162.062 28.1281 161.502 30.9609 160.774 33.2578ZM140.64 20.1875C140.656 21.3184 140.697 22.3881 140.763 23.4009C141.048 27.8372 141.766 31.1578 142.672 33.61C144.567 38.7375 147.178 39.875 148.31 39.875C148.6 39.875 148.879 39.9902 149.085 40.1954C149.291 40.4005 149.406 40.6787 149.406 40.9688V46.6781C149.406 47.1658 149.243 47.6394 148.942 48.0239C148.641 48.4083 148.22 48.6815 147.746 48.8L144.618 49.5787C144.476 49.614 144.342 49.6772 144.225 49.7647L142.825 50.8125H158.181L156.782 49.7647C156.664 49.677 156.53 49.6138 156.387 49.5787L153.261 48.8C152.786 48.6815 152.365 48.4083 152.064 48.0239C151.764 47.6394 151.6 47.1658 151.6 46.6781V40.9688C151.6 40.6787 151.716 40.4005 151.921 40.1954C152.127 39.9902 152.406 39.875 152.697 39.875C153.829 39.875 156.439 38.7375 158.335 33.61C159.241 31.16 159.958 27.835 160.243 23.4009C160.309 22.3881 160.351 21.3184 160.366 20.1875H140.64V20.1875Z" fill="white"/>
<path d="M73.6602 97.4531C72.5599 97.9935 71.1243 98.2637 69.3535 98.2637C67.0749 98.2637 65.265 97.5833 63.9238 96.2227C62.5892 94.8555 61.9219 93.0358 61.9219 90.7637C61.9219 88.3743 62.6673 86.4212 64.1582 84.9043C65.6556 83.3809 67.5859 82.6191 69.9492 82.6191C71.4271 82.6191 72.6641 82.8112 73.6602 83.1953V86.3105C72.638 85.7116 71.4792 85.4121 70.1836 85.4121C68.7057 85.4121 67.5241 85.8841 66.6387 86.8281C65.7533 87.7721 65.3105 89.0059 65.3105 90.5293C65.3105 92.0137 65.7305 93.2083 66.5703 94.1133C67.4102 95.0182 68.5462 95.4707 69.9785 95.4707C71.3262 95.4707 72.5534 95.1452 73.6602 94.4941V97.4531ZM85.623 93.4883H78.5137C78.6243 95.1615 79.6335 95.998 81.541 95.998C82.7324 95.998 83.7839 95.7051 84.6953 95.1191V97.4336C83.7122 97.987 82.4232 98.2637 80.8281 98.2637C79.1094 98.2637 77.7715 97.7786 76.8145 96.8086C75.8639 95.8385 75.3887 94.4876 75.3887 92.7559C75.3887 91.0306 75.8965 89.6309 76.9121 88.5566C77.9277 87.4759 79.2038 86.9355 80.7402 86.9355C82.2702 86.9355 83.4648 87.401 84.3242 88.332C85.1901 89.2565 85.623 90.5293 85.623 92.1504V93.4883ZM82.6836 91.5156C82.6836 89.901 82.0293 89.0938 80.7207 89.0938C80.1803 89.0938 79.7018 89.3151 79.2852 89.7578C78.8685 90.2005 78.6081 90.7865 78.5039 91.5156H82.6836ZM94.5586 90.0605C94.1745 89.8392 93.709 89.7285 93.1621 89.7285C92.446 89.7285 91.8763 90.002 91.4531 90.5488C91.0365 91.0957 90.8281 91.8477 90.8281 92.8047V98H87.6738V87.1992H90.8281V89.2305H90.8672C91.388 87.7526 92.3353 87.0137 93.709 87.0137C94.0801 87.0137 94.3633 87.056 94.5586 87.1406V90.0605ZM102.508 97.873C102.033 98.1335 101.313 98.2637 100.35 98.2637C98.0579 98.2637 96.9121 97.0592 96.9121 94.6504V89.5527H95.1348V87.1992H96.9121V84.8262L100.047 83.9277V87.1992H102.508V89.5527H100.047V94.1035C100.047 95.2559 100.503 95.832 101.414 95.832C101.766 95.832 102.13 95.7279 102.508 95.5195V97.873ZM104.148 83.7129C104.148 83.2311 104.318 82.8405 104.656 82.541C105.001 82.235 105.441 82.082 105.975 82.082C106.521 82.082 106.964 82.2383 107.303 82.5508C107.641 82.8568 107.811 83.2441 107.811 83.7129C107.811 84.1882 107.638 84.5853 107.293 84.9043C106.948 85.2168 106.508 85.373 105.975 85.373C105.447 85.373 105.011 85.2135 104.666 84.8945C104.321 84.5755 104.148 84.1816 104.148 83.7129ZM104.383 98V87.1992H107.527V98H104.383ZM117.205 84.4453C116.775 84.276 116.368 84.1914 115.984 84.1914C114.904 84.1914 114.363 84.7904 114.363 85.9883V87.1992H116.824V89.5527H114.363V98H111.209V89.5527H109.402V87.1992H111.209V85.8125C111.209 84.582 111.609 83.599 112.41 82.8633C113.211 82.1276 114.262 81.7598 115.564 81.7598C116.229 81.7598 116.775 81.8281 117.205 81.9648V84.4453ZM118.172 83.7129C118.172 83.2311 118.341 82.8405 118.68 82.541C119.025 82.235 119.464 82.082 119.998 82.082C120.545 82.082 120.988 82.2383 121.326 82.5508C121.665 82.8568 121.834 83.2441 121.834 83.7129C121.834 84.1882 121.661 84.5853 121.316 84.9043C120.971 85.2168 120.532 85.373 119.998 85.373C119.471 85.373 119.035 85.2135 118.689 84.8945C118.344 84.5755 118.172 84.1816 118.172 83.7129ZM118.406 98V87.1992H121.551V98H118.406ZM133.963 93.4883H126.854C126.964 95.1615 127.973 95.998 129.881 95.998C131.072 95.998 132.124 95.7051 133.035 95.1191V97.4336C132.052 97.987 130.763 98.2637 129.168 98.2637C127.449 98.2637 126.111 97.7786 125.154 96.8086C124.204 95.8385 123.729 94.4876 123.729 92.7559C123.729 91.0306 124.236 89.6309 125.252 88.5566C126.268 87.4759 127.544 86.9355 129.08 86.9355C130.61 86.9355 131.805 87.401 132.664 88.332C133.53 89.2565 133.963 90.5293 133.963 92.1504V93.4883ZM131.023 91.5156C131.023 89.901 130.369 89.0938 129.061 89.0938C128.52 89.0938 128.042 89.3151 127.625 89.7578C127.208 90.2005 126.948 90.7865 126.844 91.5156H131.023ZM146.434 98H143.289V96.4766H143.24C142.479 97.668 141.352 98.2637 139.861 98.2637C138.488 98.2637 137.394 97.7786 136.58 96.8086C135.773 95.8385 135.369 94.5169 135.369 92.8438C135.369 91.0729 135.822 89.6471 136.727 88.5664C137.638 87.4792 138.826 86.9355 140.291 86.9355C141.697 86.9355 142.68 87.4434 143.24 88.459H143.289V82.0137H146.434V98ZM143.338 91.8867C143.338 91.1576 143.117 90.5553 142.674 90.0801C142.238 89.5983 141.691 89.3574 141.033 89.3574C140.265 89.3574 139.66 89.6634 139.217 90.2754C138.781 90.8809 138.562 91.7044 138.562 92.7461C138.562 93.7357 138.774 94.5007 139.197 95.041C139.62 95.5749 140.203 95.8418 140.945 95.8418C141.642 95.8418 142.215 95.5586 142.664 94.9922C143.113 94.4258 143.338 93.6901 143.338 92.7852V91.8867ZM66.834 110.51H61.4336V114.396H66.4043V117.033H61.4336V123H58.2109V107.873H66.834V110.51ZM79.168 123H76.0332V121.35H75.9844C75.1771 122.626 74.0736 123.264 72.6738 123.264C70.1608 123.264 68.9043 121.747 68.9043 118.713V112.199H72.0586V118.42C72.0586 120.035 72.6901 120.842 73.9531 120.842C74.5846 120.842 75.0892 120.62 75.4668 120.178C75.8444 119.735 76.0332 119.136 76.0332 118.381V112.199H79.168V123ZM81.9902 123V107.014H85.1348V123H81.9902ZM87.9082 123V107.014H91.0527V123H87.9082ZM99.4512 119.191C100.669 120.201 102.052 120.705 103.602 120.705C104.48 120.705 105.141 120.555 105.584 120.256C106.027 119.95 106.248 119.559 106.248 119.084C106.248 118.674 106.072 118.286 105.721 117.922C105.369 117.557 104.441 117.062 102.938 116.438C100.574 115.435 99.3926 113.977 99.3926 112.062C99.3926 110.656 99.9264 109.566 100.994 108.791C102.068 108.01 103.488 107.619 105.252 107.619C106.73 107.619 107.97 107.811 108.973 108.195V111.223C107.957 110.533 106.769 110.188 105.408 110.188C104.614 110.188 103.979 110.334 103.504 110.627C103.029 110.913 102.791 111.301 102.791 111.789C102.791 112.18 102.954 112.541 103.279 112.873C103.605 113.199 104.409 113.641 105.691 114.201C107.195 114.846 108.227 115.526 108.787 116.242C109.354 116.958 109.637 117.811 109.637 118.801C109.637 120.253 109.122 121.359 108.094 122.121C107.065 122.883 105.604 123.264 103.709 123.264C101.977 123.264 100.558 122.984 99.4512 122.424V119.191ZM118.221 122.873C117.745 123.133 117.026 123.264 116.062 123.264C113.771 123.264 112.625 122.059 112.625 119.65V114.553H110.848V112.199H112.625V109.826L115.76 108.928V112.199H118.221V114.553H115.76V119.104C115.76 120.256 116.215 120.832 117.127 120.832C117.479 120.832 117.843 120.728 118.221 120.52V122.873ZM120.408 112.854C120.896 112.58 121.548 112.359 122.361 112.189C123.182 112.02 123.882 111.936 124.461 111.936C127.482 111.936 128.992 113.449 128.992 116.477V123H125.994V121.428H125.955C125.219 122.652 124.142 123.264 122.723 123.264C121.701 123.264 120.88 122.974 120.262 122.395C119.65 121.809 119.344 121.014 119.344 120.012C119.344 117.941 120.577 116.737 123.045 116.398L126.014 115.998C126.014 114.742 125.359 114.113 124.051 114.113C122.762 114.113 121.548 114.504 120.408 115.285V112.854ZM123.973 118.107C122.833 118.257 122.264 118.771 122.264 119.65C122.264 120.054 122.4 120.38 122.674 120.627C122.954 120.874 123.328 120.998 123.797 120.998C124.441 120.998 124.972 120.77 125.389 120.314C125.805 119.859 126.014 119.292 126.014 118.615V117.844L123.973 118.107ZM139.803 122.6C139.048 123.042 137.973 123.264 136.58 123.264C134.933 123.264 133.602 122.762 132.586 121.76C131.57 120.757 131.062 119.458 131.062 117.863C131.062 116.027 131.609 114.582 132.703 113.527C133.797 112.466 135.255 111.936 137.078 111.936C138.309 111.936 139.22 112.105 139.812 112.443V115.148C139.09 114.621 138.302 114.357 137.449 114.357C136.486 114.357 135.711 114.65 135.125 115.236C134.546 115.822 134.256 116.626 134.256 117.648C134.256 118.638 134.533 119.419 135.086 119.992C135.639 120.559 136.391 120.842 137.342 120.842C138.182 120.842 139.002 120.575 139.803 120.041V122.6ZM152.654 123H148.826L145.232 117.658H145.193V123H142.039V107.014H145.193V117.189H145.232L148.602 112.199H152.361L148.357 117.297L152.654 123ZM54.666 148V132.873H59.8906C65.2617 132.873 67.9473 135.331 67.9473 140.246C67.9473 142.583 67.1953 144.462 65.6914 145.881C64.1875 147.294 62.2474 148 59.8711 148H54.666ZM57.8887 135.51V145.363H59.6465C61.1764 145.363 62.3776 144.908 63.25 143.996C64.1224 143.085 64.5586 141.851 64.5586 140.295C64.5586 138.791 64.1029 137.619 63.1914 136.779C62.2799 135.933 61.0951 135.51 59.6367 135.51H57.8887ZM79.7832 143.488H72.6738C72.7845 145.161 73.7936 145.998 75.7012 145.998C76.8926 145.998 77.944 145.705 78.8555 145.119V147.434C77.8724 147.987 76.5833 148.264 74.9883 148.264C73.2695 148.264 71.9316 147.779 70.9746 146.809C70.0241 145.839 69.5488 144.488 69.5488 142.756C69.5488 141.031 70.0566 139.631 71.0723 138.557C72.0879 137.476 73.3639 136.936 74.9004 136.936C76.4303 136.936 77.625 137.401 78.4844 138.332C79.3503 139.257 79.7832 140.529 79.7832 142.15V143.488ZM76.8438 141.516C76.8438 139.901 76.1895 139.094 74.8809 139.094C74.3405 139.094 73.862 139.315 73.4453 139.758C73.0286 140.201 72.7682 140.786 72.6641 141.516H76.8438ZM91.9219 137.199L87.8691 148H84.3047L80.4473 137.199H83.8262L85.8086 143.996C86.0234 144.738 86.1439 145.36 86.1699 145.861H86.2188C86.2708 145.347 86.3978 144.745 86.5996 144.055L88.6211 137.199H91.9219ZM102.967 143.488H95.8574C95.9681 145.161 96.9772 145.998 98.8848 145.998C100.076 145.998 101.128 145.705 102.039 145.119V147.434C101.056 147.987 99.7669 148.264 98.1719 148.264C96.4531 148.264 95.1152 147.779 94.1582 146.809C93.2077 145.839 92.7324 144.488 92.7324 142.756C92.7324 141.031 93.2402 139.631 94.2559 138.557C95.2715 137.476 96.5475 136.936 98.084 136.936C99.6139 136.936 100.809 137.401 101.668 138.332C102.534 139.257 102.967 140.529 102.967 142.15V143.488ZM100.027 141.516C100.027 139.901 99.373 139.094 98.0645 139.094C97.5241 139.094 97.0456 139.315 96.6289 139.758C96.2122 140.201 95.9518 140.786 95.8477 141.516H100.027ZM104.969 148V132.014H108.113V148H104.969ZM110.291 142.648C110.291 140.871 110.822 139.475 111.883 138.459C112.951 137.443 114.383 136.936 116.18 136.936C117.918 136.936 119.298 137.437 120.32 138.439C121.342 139.436 121.854 140.777 121.854 142.463C121.854 144.234 121.329 145.643 120.281 146.691C119.233 147.74 117.814 148.264 116.023 148.264C114.266 148.264 112.869 147.762 111.834 146.76C110.805 145.751 110.291 144.38 110.291 142.648ZM113.484 142.609C113.484 144.764 114.363 145.842 116.121 145.842C117.807 145.842 118.65 144.735 118.65 142.521C118.65 140.412 117.801 139.357 116.102 139.357C115.275 139.357 114.63 139.641 114.168 140.207C113.712 140.773 113.484 141.574 113.484 142.609ZM127.234 146.701V152.971H124.08V137.199H127.234V138.85H127.273C128.1 137.574 129.269 136.936 130.779 136.936C132.153 136.936 133.227 137.417 134.002 138.381C134.777 139.338 135.164 140.643 135.164 142.297C135.164 144.1 134.715 145.546 133.816 146.633C132.918 147.72 131.74 148.264 130.281 148.264C128.96 148.264 127.957 147.743 127.273 146.701H127.234ZM127.186 143.225C127.186 143.993 127.394 144.621 127.811 145.109C128.227 145.598 128.768 145.842 129.432 145.842C130.219 145.842 130.831 145.536 131.268 144.924C131.71 144.312 131.932 143.446 131.932 142.326C131.932 140.347 131.16 139.357 129.617 139.357C128.901 139.357 128.315 139.631 127.859 140.178C127.41 140.725 127.186 141.428 127.186 142.287V143.225ZM146.99 143.488H139.881C139.992 145.161 141.001 145.998 142.908 145.998C144.1 145.998 145.151 145.705 146.062 145.119V147.434C145.079 147.987 143.79 148.264 142.195 148.264C140.477 148.264 139.139 147.779 138.182 146.809C137.231 145.839 136.756 144.488 136.756 142.756C136.756 141.031 137.264 139.631 138.279 138.557C139.295 137.476 140.571 136.936 142.107 136.936C143.637 136.936 144.832 137.401 145.691 138.332C146.557 139.257 146.99 140.529 146.99 142.15V143.488ZM144.051 141.516C144.051 139.901 143.396 139.094 142.088 139.094C141.548 139.094 141.069 139.315 140.652 139.758C140.236 140.201 139.975 140.786 139.871 141.516H144.051ZM155.926 140.061C155.542 139.839 155.076 139.729 154.529 139.729C153.813 139.729 153.243 140.002 152.82 140.549C152.404 141.096 152.195 141.848 152.195 142.805V148H149.041V137.199H152.195V139.23H152.234C152.755 137.753 153.702 137.014 155.076 137.014C155.447 137.014 155.73 137.056 155.926 137.141V140.061Z" fill="white"/>
<path d="M911.299 94.8569C911.299 91.5854 911.902 89.0871 913.106 87.3618C914.31 85.6366 916.052 84.7739 918.331 84.7739C922.676 84.7739 924.849 87.9884 924.849 94.4175C924.849 97.5832 924.259 100.029 923.079 101.754C921.899 103.471 920.194 104.33 917.964 104.33C913.521 104.33 911.299 101.172 911.299 94.8569ZM915.291 94.7593C915.291 99.1213 916.223 101.302 918.086 101.302C919.917 101.302 920.833 99.0562 920.833 94.564C920.833 90.0555 919.942 87.8013 918.16 87.8013C916.247 87.8013 915.291 90.1206 915.291 94.7593ZM938.216 85.0913V97.103H940.889V99.9717H938.216V104H934.627V99.9717H926.18V97.0786C927.929 95.1255 929.569 93.0584 931.099 90.8774C932.629 88.6965 933.785 86.7677 934.566 85.0913H938.216ZM929.671 97.103H934.627V90.1694C934.236 90.9019 933.675 91.7889 932.942 92.8306C932.218 93.8722 931.128 95.2964 929.671 97.103ZM885.127 129.408V136H881.099V117.091H887.605C892.309 117.091 894.661 119.085 894.661 123.073C894.661 125.01 893.949 126.564 892.525 127.736C891.109 128.9 889.335 129.457 887.203 129.408H885.127ZM885.127 120.216V126.32H886.873C889.241 126.32 890.425 125.29 890.425 123.231C890.425 121.221 889.253 120.216 886.91 120.216H885.127ZM905.745 126.076C905.265 125.799 904.683 125.661 904 125.661C903.104 125.661 902.392 126.002 901.863 126.686C901.342 127.37 901.082 128.31 901.082 129.506V136H897.139V122.499H901.082V125.038H901.131C901.782 123.191 902.966 122.267 904.683 122.267C905.147 122.267 905.501 122.32 905.745 122.426V126.076ZM906.929 129.311C906.929 127.089 907.592 125.343 908.919 124.074C910.254 122.804 912.044 122.169 914.29 122.169C916.463 122.169 918.188 122.796 919.466 124.049C920.743 125.294 921.382 126.971 921.382 129.079C921.382 131.292 920.727 133.054 919.417 134.364C918.107 135.674 916.333 136.33 914.095 136.33C911.897 136.33 910.152 135.703 908.858 134.45C907.572 133.188 906.929 131.475 906.929 129.311ZM910.921 129.262C910.921 131.955 912.02 133.302 914.217 133.302C916.325 133.302 917.378 131.919 917.378 129.152C917.378 126.515 916.316 125.197 914.192 125.197C913.159 125.197 912.353 125.551 911.775 126.259C911.206 126.967 910.921 127.968 910.921 129.262ZM923.897 118.141C923.897 117.539 924.109 117.051 924.532 116.676C924.963 116.294 925.512 116.103 926.18 116.103C926.863 116.103 927.417 116.298 927.84 116.688C928.263 117.071 928.475 117.555 928.475 118.141C928.475 118.735 928.259 119.232 927.828 119.63C927.396 120.021 926.847 120.216 926.18 120.216C925.521 120.216 924.975 120.017 924.544 119.618C924.113 119.219 923.897 118.727 923.897 118.141ZM928.121 135.731C928.121 137.872 927.64 139.507 926.68 140.639C925.728 141.77 924.332 142.335 922.493 142.335C921.899 142.335 921.244 142.205 920.528 141.945V138.82C921.122 139.145 921.651 139.308 922.115 139.308C923.498 139.308 924.19 138.218 924.19 136.037V122.499H928.121V135.731ZM943.697 130.36H934.81C934.948 132.452 936.21 133.498 938.594 133.498C940.083 133.498 941.398 133.131 942.537 132.399V135.292C941.308 135.984 939.697 136.33 937.703 136.33C935.555 136.33 933.882 135.723 932.686 134.511C931.498 133.298 930.904 131.61 930.904 129.445C930.904 127.288 931.539 125.539 932.808 124.196C934.078 122.845 935.673 122.169 937.593 122.169C939.506 122.169 940.999 122.751 942.073 123.915C943.156 125.071 943.697 126.662 943.697 128.688V130.36ZM940.022 127.895C940.022 125.876 939.205 124.867 937.569 124.867C936.893 124.867 936.295 125.144 935.774 125.697C935.254 126.251 934.928 126.983 934.798 127.895H940.022ZM956.38 135.5C955.436 136.053 954.093 136.33 952.352 136.33C950.293 136.33 948.628 135.703 947.359 134.45C946.089 133.196 945.455 131.573 945.455 129.579C945.455 127.284 946.138 125.478 947.505 124.159C948.873 122.833 950.695 122.169 952.974 122.169C954.512 122.169 955.652 122.381 956.392 122.804V126.186C955.489 125.526 954.504 125.197 953.438 125.197C952.234 125.197 951.265 125.563 950.533 126.295C949.808 127.028 949.446 128.033 949.446 129.311C949.446 130.548 949.792 131.524 950.484 132.24C951.176 132.948 952.116 133.302 953.304 133.302C954.354 133.302 955.379 132.969 956.38 132.301V135.5ZM967.122 135.841C966.528 136.167 965.629 136.33 964.424 136.33C961.56 136.33 960.127 134.824 960.127 131.813V125.441H957.906V122.499H960.127V119.533L964.046 118.41V122.499H967.122V125.441H964.046V131.129C964.046 132.57 964.616 133.29 965.755 133.29C966.194 133.29 966.65 133.16 967.122 132.899V135.841ZM969.173 132.375C970.524 133.196 971.846 133.607 973.14 133.607C974.768 133.607 975.582 133.172 975.582 132.301C975.582 131.683 974.91 131.166 973.567 130.751C971.891 130.23 970.739 129.652 970.113 129.018C969.486 128.375 969.173 127.508 969.173 126.417C969.173 125.091 969.71 124.053 970.784 123.305C971.858 122.548 973.266 122.169 975.008 122.169C976.245 122.169 977.437 122.353 978.584 122.719V125.819C977.535 125.201 976.379 124.892 975.118 124.892C974.491 124.892 973.986 125.006 973.604 125.233C973.222 125.453 973.03 125.746 973.03 126.112C973.03 126.731 973.6 127.231 974.739 127.614C975.96 128.021 976.875 128.391 977.486 128.725C978.104 129.058 978.572 129.498 978.89 130.043C979.215 130.588 979.378 131.219 979.378 131.935C979.378 133.327 978.82 134.409 977.706 135.182C976.591 135.947 975.101 136.33 973.238 136.33C971.773 136.33 970.418 136.098 969.173 135.634V132.375Z" fill="white"/>
<path d="M513.299 100.857C513.299 97.5854 513.902 95.0871 515.106 93.3618C516.31 91.6366 518.052 90.7739 520.331 90.7739C524.676 90.7739 526.849 93.9884 526.849 100.417C526.849 103.583 526.259 106.029 525.079 107.754C523.899 109.471 522.194 110.33 519.964 110.33C515.521 110.33 513.299 107.172 513.299 100.857ZM517.291 100.759C517.291 105.121 518.223 107.302 520.086 107.302C521.917 107.302 522.833 105.056 522.833 100.564C522.833 96.0555 521.942 93.8013 520.16 93.8013C518.247 93.8013 517.291 96.1206 517.291 100.759ZM529.706 105.886C530.967 106.83 532.44 107.302 534.125 107.302C535.191 107.302 536.037 107.066 536.664 106.594C537.29 106.122 537.604 105.451 537.604 104.58C537.604 103.685 537.229 103.001 536.48 102.529C535.74 102.057 534.698 101.821 533.355 101.821H531.671V98.7817H533.221C535.76 98.7817 537.03 97.9272 537.03 96.2183C537.03 94.6069 536.057 93.8013 534.112 93.8013C532.843 93.8013 531.61 94.2163 530.414 95.0464V91.7871C531.716 91.1117 533.25 90.7739 535.016 90.7739C536.806 90.7739 538.259 91.189 539.374 92.019C540.488 92.841 541.046 93.9844 541.046 95.4492C541.046 97.9232 539.793 99.4775 537.286 100.112V100.173C538.604 100.32 539.658 100.804 540.448 101.626C541.237 102.44 541.632 103.433 541.632 104.604C541.632 106.403 540.973 107.807 539.654 108.816C538.344 109.825 536.594 110.33 534.405 110.33C532.46 110.33 530.894 110.008 529.706 109.365V105.886ZM502.398 142V130.525C502.398 129.467 502.451 128.137 502.557 126.534H502.459C502.215 127.746 502.02 128.556 501.874 128.963L497.21 142H494L489.276 129.085C489.162 128.776 488.963 127.925 488.678 126.534H488.568C488.674 128.121 488.727 129.712 488.727 131.307V142H485.089V123.091H490.948L495.025 134.517C495.367 135.461 495.599 136.348 495.721 137.178H495.807C496.059 136.145 496.319 135.25 496.588 134.493L500.677 123.091H506.378V142H502.398ZM509.601 135.311C509.601 133.089 510.264 131.343 511.59 130.074C512.925 128.804 514.715 128.169 516.961 128.169C519.134 128.169 520.86 128.796 522.137 130.049C523.415 131.294 524.054 132.971 524.054 135.079C524.054 137.292 523.399 139.054 522.088 140.364C520.778 141.674 519.004 142.33 516.766 142.33C514.569 142.33 512.823 141.703 511.529 140.45C510.243 139.188 509.601 137.475 509.601 135.311ZM513.592 135.262C513.592 137.955 514.691 139.302 516.888 139.302C518.996 139.302 520.05 137.919 520.05 135.152C520.05 132.515 518.988 131.197 516.864 131.197C515.83 131.197 515.025 131.551 514.447 132.259C513.877 132.967 513.592 133.968 513.592 135.262ZM539.667 142H535.748V134.468C535.748 132.287 534.963 131.197 533.392 131.197C532.643 131.197 532.021 131.49 531.524 132.076C531.028 132.653 530.78 133.394 530.78 134.297V142H526.837V128.499H530.78V130.647H530.829C531.813 128.995 533.262 128.169 535.174 128.169C538.169 128.169 539.667 130.025 539.667 133.736V142ZM550.995 141.841C550.401 142.167 549.501 142.33 548.297 142.33C545.432 142.33 544 140.824 544 137.813V131.441H541.778V128.499H544V125.533L547.918 124.41V128.499H550.995V131.441H547.918V137.129C547.918 138.57 548.488 139.29 549.627 139.29C550.067 139.29 550.523 139.16 550.995 138.899V141.841ZM566.156 142H562.225V134.31C562.225 132.234 561.468 131.197 559.955 131.197C559.198 131.197 558.571 131.486 558.075 132.063C557.586 132.641 557.342 133.39 557.342 134.31V142H553.399V122.017H557.342V130.525H557.391C558.425 128.955 559.816 128.169 561.566 128.169C564.626 128.169 566.156 130.017 566.156 133.711V142ZM569.183 138.375C570.534 139.196 571.856 139.607 573.15 139.607C574.778 139.607 575.592 139.172 575.592 138.301C575.592 137.683 574.92 137.166 573.578 136.751C571.901 136.23 570.75 135.652 570.123 135.018C569.496 134.375 569.183 133.508 569.183 132.417C569.183 131.091 569.72 130.053 570.794 129.305C571.869 128.548 573.277 128.169 575.018 128.169C576.255 128.169 577.447 128.353 578.595 128.719V131.819C577.545 131.201 576.389 130.892 575.128 130.892C574.501 130.892 573.997 131.006 573.614 131.233C573.232 131.453 573.041 131.746 573.041 132.112C573.041 132.731 573.61 133.231 574.75 133.614C575.97 134.021 576.886 134.391 577.496 134.725C578.115 135.058 578.583 135.498 578.9 136.043C579.225 136.588 579.388 137.219 579.388 137.935C579.388 139.327 578.831 140.409 577.716 141.182C576.601 141.947 575.112 142.33 573.248 142.33C571.783 142.33 570.428 142.098 569.183 141.634V138.375ZM495.099 163.578C493.409 161.708 492.564 159.401 492.564 156.657C492.564 154.005 493.409 151.671 495.099 149.655H497.032C495.431 151.754 494.63 154.088 494.63 156.657C494.63 159.215 495.436 161.522 497.047 163.578H495.099ZM500.907 157.045V161H498.49V149.655H502.394C505.216 149.655 506.627 150.851 506.627 153.244C506.627 154.406 506.2 155.338 505.345 156.042C504.496 156.74 503.431 157.074 502.152 157.045H500.907ZM500.907 151.53V155.192H501.954C503.375 155.192 504.085 154.574 504.085 153.339C504.085 152.133 503.382 151.53 501.976 151.53H500.907ZM517.708 161H514.925L513.146 158.048C512.779 157.438 512.479 157.045 512.245 156.869C512.01 156.693 511.761 156.605 511.498 156.605H510.765V161H508.348V149.655H512.325C515.025 149.655 516.375 150.68 516.375 152.731C516.375 153.502 516.148 154.164 515.694 154.716C515.245 155.268 514.625 155.656 513.834 155.88V155.91C514.356 156.085 514.935 156.662 515.57 157.638L517.708 161ZM510.765 151.493V154.76H511.952C512.518 154.76 512.972 154.596 513.314 154.269C513.661 153.937 513.834 153.524 513.834 153.031C513.834 152.006 513.221 151.493 511.996 151.493H510.765ZM525.538 161H518.822V149.655H525.274V151.632H521.239V154.306H524.989V156.276H521.239V159.022H525.538V161ZM526.886 158.144C527.799 158.9 528.836 159.279 529.999 159.279C530.658 159.279 531.153 159.167 531.485 158.942C531.817 158.712 531.983 158.419 531.983 158.063C531.983 157.755 531.852 157.465 531.588 157.191C531.324 156.918 530.628 156.547 529.5 156.078C527.728 155.326 526.842 154.232 526.842 152.797C526.842 151.742 527.242 150.924 528.043 150.343C528.849 149.757 529.913 149.464 531.236 149.464C532.345 149.464 533.275 149.608 534.027 149.896V152.167C533.265 151.649 532.374 151.391 531.354 151.391C530.758 151.391 530.282 151.5 529.925 151.72C529.569 151.935 529.391 152.226 529.391 152.592C529.391 152.885 529.513 153.156 529.757 153.405C530.001 153.649 530.604 153.981 531.566 154.401C532.694 154.884 533.468 155.395 533.888 155.932C534.312 156.469 534.525 157.108 534.525 157.851C534.525 158.939 534.139 159.77 533.368 160.341C532.596 160.912 531.5 161.198 530.079 161.198C528.78 161.198 527.716 160.988 526.886 160.568V158.144ZM543.146 161H536.429V149.655H542.882V151.632H538.846V154.306H542.596V156.276H538.846V159.022H543.146V161ZM555.099 161H552.623L547.818 153.661C547.569 153.28 547.389 152.973 547.276 152.738H547.24C547.284 153.129 547.306 153.732 547.306 154.547V161H545.013V149.655H547.65L552.279 156.789C552.586 157.262 552.774 157.562 552.843 157.689H552.879C552.831 157.416 552.806 156.894 552.806 156.122V149.655H555.099V161ZM565.572 151.632H562.335V161H559.911V151.632H556.681V149.655H565.572V151.632ZM565.96 163.578C567.582 161.522 568.392 159.215 568.392 156.657C568.392 154.108 567.582 151.774 565.96 149.655H567.901C569.605 151.681 570.458 154.015 570.458 156.657C570.458 159.376 569.601 161.684 567.887 163.578H565.96Z" fill="white"/>
<path d="M962.281 13C961.411 13 960.576 13.3457 959.961 13.9611C959.346 14.5764 959 15.411 959 16.2812V31.5938C959 32.464 959.346 33.2986 959.961 33.9139C960.576 34.5293 961.411 34.875 962.281 34.875H972.125V37.0625H961.188C960.607 37.0625 960.051 37.293 959.641 37.7032C959.23 38.1134 959 38.6698 959 39.25V45.8125C959 46.3927 959.23 46.9491 959.641 47.3593C960.051 47.7695 960.607 48 961.188 48H991.812C992.393 48 992.949 47.7695 993.359 47.3593C993.77 46.9491 994 46.3927 994 45.8125V39.25C994 38.6698 993.77 38.1134 993.359 37.7032C992.949 37.293 992.393 37.0625 991.812 37.0625H980.875V34.875H990.719C991.589 34.875 992.424 34.5293 993.039 33.9139C993.654 33.2986 994 32.464 994 31.5938V16.2812C994 15.411 993.654 14.5764 993.039 13.9611C992.424 13.3457 991.589 13 990.719 13H962.281ZM962.281 15.1875H990.719C991.009 15.1875 991.287 15.3027 991.492 15.5079C991.697 15.713 991.812 15.9912 991.812 16.2812V31.5938C991.812 31.8838 991.697 32.162 991.492 32.3671C991.287 32.5723 991.009 32.6875 990.719 32.6875H962.281C961.991 32.6875 961.713 32.5723 961.508 32.3671C961.303 32.162 961.188 31.8838 961.188 31.5938V16.2812C961.188 15.9912 961.303 15.713 961.508 15.5079C961.713 15.3027 961.991 15.1875 962.281 15.1875V15.1875ZM985.25 40.3438C985.25 40.0537 985.365 39.7755 985.57 39.5704C985.775 39.3652 986.054 39.25 986.344 39.25C986.634 39.25 986.912 39.3652 987.117 39.5704C987.322 39.7755 987.438 40.0537 987.438 40.3438C987.438 40.6338 987.322 40.912 987.117 41.1171C986.912 41.3223 986.634 41.4375 986.344 41.4375C986.054 41.4375 985.775 41.3223 985.57 41.1171C985.365 40.912 985.25 40.6338 985.25 40.3438ZM989.625 40.3438C989.625 40.0537 989.74 39.7755 989.945 39.5704C990.15 39.3652 990.429 39.25 990.719 39.25C991.009 39.25 991.287 39.3652 991.492 39.5704C991.697 39.7755 991.812 40.0537 991.812 40.3438C991.812 40.6338 991.697 40.912 991.492 41.1171C991.287 41.3223 991.009 41.4375 990.719 41.4375C990.429 41.4375 990.15 41.3223 989.945 41.1171C989.74 40.912 989.625 40.6338 989.625 40.3438ZM962.281 39.25H973.219C973.509 39.25 973.787 39.3652 973.992 39.5704C974.197 39.7755 974.312 40.0537 974.312 40.3438C974.312 40.6338 974.197 40.912 973.992 41.1171C973.787 41.3223 973.509 41.4375 973.219 41.4375H962.281C961.991 41.4375 961.713 41.3223 961.508 41.1171C961.303 40.912 961.188 40.6338 961.188 40.3438C961.188 40.0537 961.303 39.7755 961.508 39.5704C961.713 39.3652 961.991 39.25 962.281 39.25V39.25ZM961.188 44.1719C961.188 44.0268 961.245 43.8877 961.348 43.7852C961.45 43.6826 961.589 43.625 961.734 43.625H973.766C973.911 43.625 974.05 43.6826 974.152 43.7852C974.255 43.8877 974.312 44.0268 974.312 44.1719C974.312 44.3169 974.255 44.456 974.152 44.5586C974.05 44.6611 973.911 44.7188 973.766 44.7188H961.734C961.589 44.7188 961.45 44.6611 961.348 44.5586C961.245 44.456 961.188 44.3169 961.188 44.1719Z" fill="white"/>
<path d="M559.656 13C559.946 13 560.225 13.1152 560.43 13.3204C560.635 13.5255 560.75 13.8037 560.75 14.0938V15.1875H578.25V14.0938C578.25 13.8037 578.365 13.5255 578.57 13.3204C578.775 13.1152 579.054 13 579.344 13C579.634 13 579.912 13.1152 580.117 13.3204C580.322 13.5255 580.438 13.8037 580.438 14.0938V15.1875H582.625C583.785 15.1875 584.898 15.6484 585.719 16.4689C586.539 17.2894 587 18.4022 587 19.5625V43.625C587 44.7853 586.539 45.8981 585.719 46.7186C584.898 47.5391 583.785 48 582.625 48H556.375C555.215 48 554.102 47.5391 553.281 46.7186C552.461 45.8981 552 44.7853 552 43.625V19.5625C552 18.4022 552.461 17.2894 553.281 16.4689C554.102 15.6484 555.215 15.1875 556.375 15.1875H558.562V14.0938C558.562 13.8037 558.678 13.5255 558.883 13.3204C559.088 13.1152 559.366 13 559.656 13V13ZM581.431 19.5625H557.567C556.911 19.5625 556.375 20.0525 556.375 20.6562V22.8438C556.375 23.4475 556.909 23.9375 557.567 23.9375H581.433C582.089 23.9375 582.625 23.4475 582.625 22.8438V20.6562C582.625 20.0525 582.091 19.5625 581.431 19.5625ZM575.743 32.3681C575.949 32.1627 576.064 31.8842 576.064 31.5938C576.064 31.3033 575.949 31.0248 575.743 30.8194C575.538 30.614 575.259 30.4986 574.969 30.4986C574.678 30.4986 574.4 30.614 574.194 30.8194L568.406 36.6097L565.899 34.1006C565.798 33.9989 565.677 33.9183 565.544 33.8632C565.411 33.8082 565.269 33.7799 565.125 33.7799C564.981 33.7799 564.839 33.8082 564.706 33.8632C564.573 33.9183 564.452 33.9989 564.351 34.1006C564.249 34.2023 564.168 34.323 564.113 34.4559C564.058 34.5888 564.03 34.7312 564.03 34.875C564.03 35.0188 564.058 35.1612 564.113 35.2941C564.168 35.427 564.249 35.5477 564.351 35.6494L567.632 38.9306C567.733 39.0325 567.854 39.1133 567.987 39.1684C568.12 39.2236 568.262 39.252 568.406 39.252C568.55 39.252 568.693 39.2236 568.825 39.1684C568.958 39.1133 569.079 39.0325 569.181 38.9306L575.743 32.3681V32.3681Z" fill="white"/>
</svg>
