<svg width="411" height="412" viewBox="0 0 411 412" fill="none" xmlns="http://www.w3.org/2000/svg">
<path d="M237.105 20.1396C240.637 30.1457 233.152 32.9799 224.579 38.343C216.006 43.7062 209.59 49.5673 206.058 39.5612C202.526 29.5551 199.66 9.6949 211.789 2.10782C224.335 -5.74063 233.573 10.1335 237.105 20.1396Z" fill="#2F2E41"/>
<path d="M219.5 40C225.851 40 231 33.0604 231 24.5C231 15.9396 225.851 9 219.5 9C213.149 9 208 15.9396 208 24.5C208 33.0604 213.149 40 219.5 40Z" fill="#FFB8B8"/>
<path d="M276.486 92.0956C276.091 91.4033 275.696 90.7235 275.297 90.0624C274.781 89.2017 274.262 88.368 273.74 87.5613C267.826 78.3992 261.535 72.6299 254.608 72.0125H254.598L254.496 72L240.693 90.0624L236 96.1996L236.102 96.5364L238.634 105H283C281.001 100.546 278.827 96.2388 276.486 92.0956V92.0956Z" fill="#2F2E41"/>
<path d="M207.142 31L211.208 28.3641L210.641 20.2719L213.36 26.9687L215.304 25.7088L214.973 20.9884L216.559 24.8948L231 15.5335C229.644 11.5517 227.196 8.47623 224.196 6.98373C221.196 5.49122 217.89 5.70389 215.003 7.57496L212.911 8.93169C210.024 10.8028 207.795 14.179 206.713 18.3176C205.631 22.4562 205.785 27.0182 207.142 31V31Z" fill="#2F2E41"/>
<path d="M302.261 308H61.7386C59.6869 307.997 57.7199 306.912 56.2691 304.983C54.8184 303.054 54.0023 300.438 54 297.71V105.539C54.0017 103.54 54.5995 101.624 55.6623 100.211C56.7251 98.7973 58.1662 98.0023 59.6693 98H304.233C305.762 98.0023 307.228 98.811 308.309 100.249C309.39 101.686 309.998 103.636 310 105.669V297.71C309.998 300.438 309.182 303.054 307.731 304.983C306.28 306.912 304.313 307.997 302.261 308Z" fill="#F2F2F2"/>
<path d="M69.4877 298H294.512C296.498 298 298.403 296.949 299.807 295.079C301.211 293.208 302 290.671 302 288.025V124.975C302 122.329 301.211 119.792 299.807 117.921C298.403 116.051 296.498 115 294.512 115H69.4877C67.5019 115 65.5973 116.051 64.1931 117.921C62.7889 119.792 62 122.329 62 124.975V288.025C62 290.671 62.7889 293.208 64.1931 295.079C65.5973 296.949 67.5019 298 69.4877 298Z" fill="white"/>
<path d="M310 105H54V99.9497C54.003 97.311 54.8224 94.7815 56.2784 92.9162C57.7344 91.051 59.7082 90.0022 61.7667 90H302.233C304.292 90.0022 306.266 91.0509 307.722 92.9162C309.178 94.7815 309.997 97.311 310 99.9497V105Z" fill="#05263B"/>
<path d="M68 100C69.1046 100 70 98.8807 70 97.5C70 96.1193 69.1046 95 68 95C66.8954 95 66 96.1193 66 97.5C66 98.8807 66.8954 100 68 100Z" fill="white"/>
<path d="M76 100C77.1046 100 78 98.8807 78 97.5C78 96.1193 77.1046 95 76 95C74.8954 95 74 96.1193 74 97.5C74 98.8807 74.8954 100 76 100Z" fill="white"/>
<path d="M83 100C84.1046 100 85 98.8807 85 97.5C85 96.1193 84.1046 95 83 95C81.8954 95 81 96.1193 81 97.5C81 98.8807 81.8954 100 83 100Z" fill="white"/>
<path d="M189.403 263H168.597C167.378 262.998 166.21 262.368 165.348 261.248C164.486 260.127 164.001 258.609 164 257.024V229.976C164.001 228.391 164.486 226.873 165.348 225.752C166.21 224.632 167.378 224.002 168.597 224H189.403C190.622 224.002 191.79 224.632 192.652 225.752C193.514 226.873 193.999 228.391 194 229.976V257.024C193.999 258.609 193.514 260.127 192.652 261.248C191.79 262.368 190.622 262.998 189.403 263V263ZM168.597 225.258C167.635 225.259 166.712 225.757 166.032 226.641C165.351 227.526 164.969 228.725 164.968 229.976V257.024C164.969 258.275 165.351 259.474 166.032 260.359C166.712 261.243 167.635 261.741 168.597 261.742H189.403C190.365 261.741 191.288 261.243 191.968 260.359C192.648 259.474 193.031 258.275 193.032 257.024V229.976C193.031 228.725 192.648 227.526 191.968 226.641C191.288 225.757 190.365 225.259 189.403 225.258H168.597Z" fill="#CCCCCC"/>
<path d="M184.594 255H172.406C172.033 254.999 171.676 254.8 171.412 254.444C171.149 254.089 171 253.608 171 253.105V232.895C171 232.392 171.149 231.911 171.412 231.556C171.676 231.2 172.033 231.001 172.406 231H181.237C181.558 231 181.868 231.148 182.118 231.418L185.474 235.052C185.639 235.229 185.772 235.454 185.863 235.709C185.954 235.965 186 236.245 186 236.529V253.105C186 253.608 185.851 254.089 185.588 254.444C185.324 254.8 184.967 254.999 184.594 255V255ZM172.406 232.263C172.282 232.263 172.163 232.33 172.075 232.448C171.987 232.567 171.938 232.727 171.937 232.895V253.105C171.938 253.273 171.987 253.433 172.075 253.552C172.163 253.67 172.282 253.737 172.406 253.737H184.594C184.718 253.737 184.837 253.67 184.925 253.552C185.013 253.433 185.062 253.273 185.062 253.105V236.529C185.063 236.434 185.047 236.341 185.017 236.256C184.986 236.171 184.942 236.096 184.887 236.037L181.531 232.402C181.447 232.312 181.344 232.263 181.237 232.263H172.406Z" fill="#CCCCCC"/>
<path d="M182.556 240H175.444C175.327 240 175.214 239.947 175.13 239.854C175.047 239.76 175 239.633 175 239.5C175 239.367 175.047 239.24 175.13 239.146C175.214 239.053 175.327 239 175.444 239H182.556C182.673 239 182.786 239.053 182.87 239.146C182.953 239.24 183 239.367 183 239.5C183 239.633 182.953 239.76 182.87 239.854C182.786 239.947 182.673 240 182.556 240Z" fill="#CCCCCC"/>
<path d="M182.556 244H175.444C175.327 244 175.214 243.947 175.13 243.854C175.047 243.76 175 243.633 175 243.5C175 243.367 175.047 243.24 175.13 243.146C175.214 243.053 175.327 243 175.444 243H182.556C182.673 243 182.786 243.053 182.87 243.146C182.953 243.24 183 243.367 183 243.5C183 243.633 182.953 243.76 182.87 243.854C182.786 243.947 182.673 244 182.556 244Z" fill="#CCCCCC"/>
<path d="M182.556 248H175.444C175.327 248 175.214 247.895 175.13 247.707C175.047 247.52 175 247.265 175 247C175 246.735 175.047 246.48 175.13 246.293C175.214 246.105 175.327 246 175.444 246H182.556C182.673 246 182.786 246.105 182.87 246.293C182.953 246.48 183 246.735 183 247C183 247.265 182.953 247.52 182.87 247.707C182.786 247.895 182.673 248 182.556 248Z" fill="#CCCCCC"/>
<path d="M236.556 263H216.444C215.265 262.998 214.136 262.368 213.303 261.248C212.47 260.127 212.001 258.609 212 257.024V229.976C212.001 228.391 212.47 226.873 213.303 225.752C214.136 224.632 215.265 224.002 216.444 224H236.556C237.735 224.002 238.864 224.632 239.697 225.752C240.53 226.873 240.999 228.391 241 229.976V257.024C240.999 258.609 240.53 260.127 239.697 261.248C238.864 262.368 237.735 262.998 236.556 263V263ZM216.444 225.258C215.513 225.259 214.622 225.757 213.964 226.641C213.306 227.526 212.937 228.725 212.935 229.976V257.024C212.937 258.275 213.306 259.474 213.964 260.359C214.622 261.243 215.513 261.741 216.444 261.742H236.556C237.487 261.741 238.378 261.243 239.036 260.359C239.694 259.474 240.063 258.275 240.065 257.024V229.976C240.063 228.725 239.694 227.526 239.036 226.641C238.378 225.757 237.487 225.259 236.556 225.258H216.444Z" fill="#CCCCCC"/>
<path d="M233.588 250H220.412C220.037 249.999 219.679 249.798 219.414 249.44C219.149 249.082 219 248.597 219 248.091V237.909C219 237.403 219.149 236.918 219.414 236.56C219.679 236.202 220.037 236.001 220.412 236H233.588C233.963 236.001 234.321 236.202 234.586 236.56C234.851 236.918 235 237.403 235 237.909V248.091C235 248.597 234.851 249.082 234.586 249.44C234.321 249.798 233.963 249.999 233.588 250V250ZM220.412 237.273C220.287 237.273 220.167 237.34 220.079 237.459C219.991 237.579 219.941 237.74 219.941 237.909V248.091C219.941 248.26 219.991 248.421 220.079 248.541C220.167 248.66 220.287 248.727 220.412 248.727H233.588C233.713 248.727 233.833 248.66 233.921 248.541C234.009 248.421 234.059 248.26 234.059 248.091V237.909C234.059 237.74 234.009 237.579 233.921 237.459C233.833 237.34 233.713 237.273 233.588 237.273H220.412Z" fill="#CCCCCC"/>
<path d="M227 245C226.736 245 226.476 244.906 226.252 244.728L219.22 239.111C219.115 239.026 219.04 238.892 219.012 238.736C218.984 238.581 219.005 238.418 219.072 238.283C219.138 238.148 219.243 238.051 219.365 238.016C219.486 237.98 219.614 238.007 219.72 238.091L226.751 243.707C226.826 243.767 226.912 243.798 227 243.798C227.088 243.798 227.175 243.767 227.25 243.707L234.28 238.091C234.386 238.007 234.514 237.98 234.635 238.016C234.757 238.051 234.862 238.148 234.928 238.283C234.995 238.418 235.016 238.581 234.988 238.736C234.96 238.892 234.885 239.026 234.78 239.111L227.749 244.728C227.524 244.906 227.265 245.001 227 245V245Z" fill="#CCCCCC"/>
<path d="M141.556 263H121.444C120.265 262.998 119.136 262.368 118.303 261.248C117.47 260.127 117.001 258.609 117 257.024V229.976C117.001 228.391 117.47 226.873 118.303 225.752C119.136 224.632 120.265 224.002 121.444 224H141.556C142.735 224.002 143.864 224.632 144.697 225.752C145.53 226.873 145.999 228.391 146 229.976V257.024C145.999 258.609 145.53 260.127 144.697 261.248C143.864 262.368 142.735 262.998 141.556 263V263ZM121.444 225.258C120.513 225.259 119.622 225.757 118.964 226.641C118.306 227.526 117.937 228.725 117.935 229.976V257.024C117.937 258.275 118.306 259.474 118.964 260.359C119.622 261.243 120.513 261.741 121.444 261.742H141.556C142.487 261.741 143.378 261.243 144.036 260.359C144.694 259.474 145.063 258.275 145.065 257.024V229.976C145.063 228.725 144.694 227.526 144.036 226.641C143.378 225.757 142.487 225.259 141.556 225.258H121.444Z" fill="#CCCCCC"/>
<path d="M137.588 250H124.412C124.037 249.999 123.679 249.798 123.414 249.44C123.149 249.082 123 248.597 123 248.091V237.909C123 237.403 123.149 236.918 123.414 236.56C123.679 236.202 124.037 236.001 124.412 236H137.588C137.963 236.001 138.321 236.202 138.586 236.56C138.851 236.918 139 237.403 139 237.909V248.091C139 248.597 138.851 249.082 138.586 249.44C138.321 249.798 137.963 249.999 137.588 250V250ZM124.412 237.273C124.287 237.273 124.167 237.34 124.079 237.459C123.991 237.579 123.941 237.74 123.941 237.909V248.091C123.941 248.26 123.991 248.421 124.079 248.541C124.167 248.66 124.287 248.727 124.412 248.727H137.588C137.713 248.727 137.833 248.66 137.921 248.541C138.009 248.421 138.059 248.26 138.059 248.091V237.909C138.059 237.74 138.009 237.579 137.921 237.459C137.833 237.34 137.713 237.273 137.588 237.273H124.412Z" fill="#CCCCCC"/>
<path d="M136.005 250H125.995C125.82 250 125.649 249.943 125.497 249.834C125.346 249.725 125.221 249.568 125.133 249.379C125.046 249.191 125 248.977 125 248.759C125 248.541 125.046 248.327 125.133 248.138L128.149 241.621C128.236 241.432 128.361 241.275 128.513 241.166C128.664 241.057 128.836 241 129.01 241C129.185 241 129.356 241.057 129.508 241.166C129.659 241.275 129.784 241.432 129.872 241.621L131.819 245.83L132.947 243.391C133.035 243.203 133.16 243.046 133.312 242.937C133.463 242.828 133.634 242.771 133.809 242.771C133.984 242.771 134.155 242.828 134.306 242.937C134.458 243.046 134.583 243.203 134.671 243.391L136.867 248.138C136.954 248.327 137 248.541 137 248.759C137 248.977 136.954 249.191 136.867 249.379C136.779 249.568 136.654 249.725 136.502 249.834C136.351 249.943 136.18 250 136.005 250H136.005ZM136.005 248.759L133.809 244.012L132.25 247.381C132.206 247.476 132.144 247.554 132.068 247.609C131.992 247.663 131.907 247.692 131.819 247.692V247.692C131.732 247.692 131.646 247.663 131.57 247.609C131.495 247.554 131.432 247.476 131.388 247.381L129.01 242.241L125.995 248.759H136.005Z" fill="#CCCCCC"/>
<path d="M136 241C136.552 241 137 240.552 137 240C137 239.448 136.552 239 136 239C135.448 239 135 239.448 135 240C135 240.552 135.448 241 136 241Z" fill="#CCCCCC"/>
<path d="M360.999 404L354.901 403.999L352 374L361 374.001L360.999 404Z" fill="#FFB8B8"/>
<path d="M362 411L344 410.999V410.684C344 409.413 344.181 408.153 344.533 406.978C344.885 405.803 345.401 404.736 346.052 403.836C346.703 402.937 347.475 402.224 348.325 401.737C349.175 401.25 350.086 401 351.006 401H351.006L362 401.001L362 411Z" fill="#2F2E41"/>
<path d="M383.999 404L378.579 403.999L376 374L384 374.001L383.999 404Z" fill="#FFB8B8"/>
<path d="M386 411L367 410.999V410.684C367 409.413 367.191 408.153 367.563 406.978C367.935 405.803 368.479 404.736 369.166 403.836C369.853 402.937 370.668 402.224 371.565 401.737C372.462 401.25 373.424 401 374.395 401H374.396L386 401.001L386 411Z" fill="#2F2E41"/>
<path d="M382.255 390.878L376.979 388.733C376.585 388.574 376.236 388.263 375.974 387.839C375.713 387.416 375.55 386.899 375.508 386.353L370.589 324.046C370.585 323.971 370.56 323.901 370.519 323.849C370.477 323.797 370.423 323.769 370.366 323.769C370.31 323.761 370.253 323.784 370.209 323.831C370.165 323.879 370.136 323.947 370.129 324.023L361.89 384.387C361.84 384.753 361.736 385.102 361.584 385.414C361.431 385.726 361.234 385.994 361.003 386.202C360.772 386.41 360.512 386.555 360.239 386.627C359.966 386.699 359.684 386.698 359.412 386.622L352.669 384.766C352.174 384.628 351.734 384.256 351.428 383.718C351.122 383.181 350.972 382.514 351.004 381.84L356.016 282.901L390 278L384.95 388.375C384.917 389.084 384.684 389.75 384.297 390.238C383.91 390.726 383.398 390.998 382.866 391C382.659 391 382.453 390.959 382.255 390.878V390.878Z" fill="#2F2E41"/>
<path d="M382.5 196C388.851 196 394 189.284 394 181C394 172.716 388.851 166 382.5 166C376.149 166 371 172.716 371 181C371 189.284 376.149 196 382.5 196Z" fill="#FFB8B8"/>
<path d="M356 283.631L363.484 221.016C363.881 217.686 364.808 214.508 366.203 211.692C367.597 208.876 369.426 206.487 371.57 204.683C373.713 202.88 376.12 201.704 378.632 201.233C381.144 200.762 383.702 201.007 386.137 201.953V201.953C390.395 203.589 394.04 207.275 396.361 212.292C398.683 217.309 399.513 223.295 398.691 229.082L390.861 285L356 283.631Z" fill="#05263B"/>
<path d="M385.432 293.949C386.011 293.45 386.499 292.793 386.862 292.022C387.226 291.252 387.454 290.387 387.533 289.489C387.612 288.59 387.538 287.68 387.318 286.823C387.097 285.966 386.735 285.182 386.257 284.527L394 265L385.28 266.212L379.263 284.569C378.471 285.689 378.022 287.147 378.001 288.669C377.98 290.191 378.388 291.67 379.148 292.827C379.908 293.983 380.968 294.736 382.126 294.942C383.284 295.149 384.46 294.796 385.432 293.949V293.949Z" fill="#FFB8B8"/>
<path d="M386.949 280.973C386.507 280.893 386.094 280.645 385.765 280.26L382.704 276.67C382.373 276.28 382.145 275.771 382.05 275.212C381.954 274.652 381.997 274.068 382.171 273.54L388.289 255.136L387.421 218.772C387.546 217.603 387.851 216.477 388.319 215.458C388.787 214.439 389.409 213.546 390.149 212.832C390.888 212.118 391.732 211.596 392.631 211.296C393.53 210.995 394.466 210.923 395.387 211.082C396.308 211.242 397.195 211.63 397.998 212.225C398.801 212.82 399.503 213.609 400.065 214.549C400.627 215.489 401.038 216.559 401.274 217.7C401.51 218.842 401.566 220.03 401.439 221.199L402.923 244.058C403.374 250.996 401.825 257.905 398.562 263.501L389.021 279.87C388.838 280.185 388.604 280.447 388.335 280.64C388.067 280.832 387.769 280.951 387.462 280.988C387.291 281.008 387.119 281.003 386.949 280.973V280.973Z" fill="#05263B"/>
<path d="M316.082 172.402C316.204 173.292 316.468 174.136 316.856 174.873C317.243 175.61 317.746 176.223 318.327 176.668C318.908 177.113 319.555 177.38 320.22 177.45C320.886 177.52 321.555 177.391 322.18 177.072L332.555 194L335 183.052L324.773 168.656C324.309 167.267 323.485 166.158 322.458 165.538C321.431 164.918 320.272 164.831 319.201 165.292C318.13 165.754 317.221 166.733 316.646 168.043C316.071 169.354 315.87 170.904 316.082 172.402V172.402Z" fill="#FFB8B8"/>
<path d="M324.302 179.526C324.524 179.04 324.853 178.655 325.246 178.421L328.909 176.245C329.306 176.011 329.749 175.942 330.176 176.049C330.604 176.156 330.996 176.433 331.3 176.842L341.879 191.157L367.655 204.311C368.427 204.912 369.1 205.707 369.638 206.651C370.176 207.595 370.566 208.668 370.788 209.811C371.01 210.953 371.058 212.142 370.93 213.308C370.802 214.475 370.501 215.598 370.043 216.611C369.585 217.625 368.979 218.51 368.261 219.215C367.543 219.921 366.726 220.434 365.857 220.724C364.988 221.014 364.084 221.076 363.196 220.907C362.309 220.737 361.456 220.34 360.685 219.736L344.129 212.563C339.104 210.387 334.852 205.885 332.162 199.895L324.294 182.375C324.143 182.038 324.047 181.663 324.014 181.275C323.98 180.886 324.009 180.492 324.098 180.119C324.148 179.912 324.216 179.713 324.302 179.526V179.526Z" fill="#05263B"/>
<path opacity="0.1" d="M392 234L391.537 253.997L383 274L390.128 251.708L392 234Z" fill="black"/>
<path d="M380.908 183.64C380.169 183.763 379.42 183.537 378.8 183.003C378.18 182.469 377.732 181.664 377.538 180.736C377.352 179.669 376.943 178.687 376.356 177.895C375.769 177.104 375.026 176.534 374.207 176.245C372.047 175.61 369.407 176.919 367.825 174.811C367.486 174.33 367.241 173.752 367.11 173.125C366.978 172.498 366.965 171.839 367.07 171.204C367.361 169.156 368.499 167.608 369.736 166.371C372.341 163.779 375.494 162.261 378.78 162.017C380.481 161.954 382.183 162.063 383.871 162.344C385.638 162.487 387.386 162.899 389.078 163.57C391.006 164.507 392.72 166.055 394.06 168.071C395.401 170.087 396.325 172.506 396.748 175.104C397.135 177.71 397.076 180.393 396.574 182.966C396.073 185.54 395.141 187.941 393.845 190.003C392.293 192.492 390.292 194.455 388.016 195.72C387.474 196.049 386.852 196.09 386.287 195.833C384.87 195.107 385.101 192.845 385.748 191.336C386.439 189.722 387.504 188.158 386.947 186.194C386.669 185.282 386.133 184.54 385.448 184.115C384.039 183.189 382.463 183.408 380.948 183.634L380.908 183.64Z" fill="#2F2E41"/>
<path d="M312.264 192H169.736C167.685 191.997 165.719 190.914 164.268 188.988C162.818 187.063 162.002 184.453 162 181.73V141.27C162.002 138.547 162.818 135.937 164.268 134.012C165.719 132.086 167.685 131.003 169.736 131H312.264C314.315 131.003 316.281 132.086 317.732 134.012C319.182 135.937 319.998 138.547 320 141.27V181.73C319.998 184.453 319.182 187.063 317.732 188.988C316.281 190.914 314.315 191.997 312.264 192V192Z" fill="white"/>
<path d="M312.053 193H169.947C167.84 192.997 165.82 191.874 164.33 189.878C162.84 187.882 162.002 185.176 162 182.354V141.646C162.002 138.824 162.84 136.118 164.33 134.122C165.82 132.126 167.84 131.003 169.947 131H312.053C314.16 131.003 316.18 132.126 317.67 134.122C319.16 136.118 319.998 138.824 320 141.646V182.354C319.998 185.176 319.16 187.882 317.67 189.878C316.18 191.874 314.16 192.997 312.053 193ZM169.947 132.253C168.088 132.255 166.305 133.246 164.991 135.007C163.676 136.768 162.937 139.156 162.935 141.646V182.354C162.937 184.844 163.676 187.232 164.991 188.993C166.305 190.754 168.088 191.745 169.947 191.747H312.053C313.912 191.745 315.695 190.754 317.009 188.993C318.324 187.232 319.063 184.844 319.065 182.354V141.646C319.063 139.156 318.324 136.768 317.009 135.007C315.695 133.246 313.912 132.255 312.053 132.253H169.947Z" fill="#3F3D56"/>
<path d="M294.283 182H186.717C184.671 181.997 182.709 180.932 181.263 179.039C179.816 177.146 179.002 174.58 179 171.903V151.097C179.002 148.42 179.816 145.854 181.263 143.961C182.709 142.068 184.671 141.003 186.717 141H294.283C296.329 141.003 298.291 142.068 299.737 143.961C301.184 145.854 301.998 148.42 302 151.097V171.903C301.998 174.58 301.184 177.146 299.737 179.039C298.291 180.932 296.329 181.997 294.283 182V182Z" fill="#F2F2F2"/>
<path d="M210 171C214.971 171 219 165.404 219 158.5C219 151.596 214.971 146 210 146C205.029 146 201 151.596 201 158.5C201 165.404 205.029 171 210 171Z" fill="#FF6584"/>
<path d="M287.832 180.759L274.741 166.207L261.877 151.905C261.537 151.528 261.108 151.321 260.665 151.323C260.222 151.324 259.793 151.532 259.455 151.911L246.632 166.278L243.5 169.788L238.777 164.538L224.425 148.583C224.085 148.205 223.656 147.999 223.213 148C222.77 148.001 222.342 148.21 222.003 148.589L207.698 164.617L193.167 180.898C193.093 180.98 193.04 181.091 193.016 181.214C192.991 181.338 192.996 181.469 193.029 181.588C193.062 181.708 193.122 181.812 193.201 181.885C193.28 181.958 193.375 181.997 193.471 181.997L223.262 181.921L232.692 181.897L232.6 182L260.71 181.928L287.531 181.86C287.627 181.86 287.721 181.82 287.8 181.747C287.879 181.673 287.939 181.569 287.972 181.449C288.005 181.329 288.009 181.198 287.984 181.075C287.959 180.952 287.906 180.841 287.832 180.759Z" fill="#3F3D56"/>
<path d="M410.531 412H320.469C320.345 412 320.225 411.947 320.137 411.854C320.049 411.76 320 411.633 320 411.5C320 411.367 320.049 411.24 320.137 411.146C320.225 411.053 320.345 411 320.469 411H410.531C410.655 411 410.775 411.053 410.863 411.146C410.951 411.24 411 411.367 411 411.5C411 411.633 410.951 411.76 410.863 411.854C410.775 411.947 410.655 412 410.531 412Z" fill="#CCCCCC"/>
<path d="M283.201 82.2777C282.826 81.4722 282.332 80.776 281.747 80.2318C281.162 79.6875 280.5 79.3066 279.801 79.1122C279.544 79.0409 279.284 78.9973 279.022 78.9819L243.29 36.7008C242.588 35.746 241.652 35.154 240.65 35.0311C240.452 35.0011 240.253 34.9928 240.054 35.0063C239.229 35.0559 238.434 35.4223 237.764 36.0608C237.095 36.6993 236.58 37.5821 236.284 38.6014C235.987 39.6207 235.921 40.7322 236.095 41.8001C236.268 42.868 236.672 43.846 237.259 44.6145L250.939 60.3985L273.404 86.3122C273.422 86.8002 273.477 87.2847 273.568 87.7584C273.837 89.1307 274.414 90.3623 275.224 91.2902C276.034 92.218 277.038 92.7981 278.103 92.9535C279.074 93.1036 280.057 92.8885 280.94 92.3328C281.64 91.8995 282.261 91.2706 282.76 90.4894C282.812 90.4087 282.859 90.3342 282.905 90.2473C283.561 89.1163 283.941 87.7475 283.994 86.3236C284.046 84.8996 283.77 83.4883 283.201 82.2777H283.201Z" fill="#FFB8B8"/>
<path d="M222.329 122.764L222.007 104.798L221.736 89.8887L221.55 79.4553L221.183 59.1175C221.11 58.0286 220.809 56.9923 220.315 56.1351C219.821 55.2779 219.156 54.6369 218.402 54.2903C217.647 53.9438 216.836 53.9066 216.066 54.1835C215.297 54.4603 214.603 55.0391 214.068 55.8493C213.943 56.0344 213.829 56.2344 213.729 56.4469C213.171 57.5445 212.92 58.8818 213.022 60.2131L213.828 89.8887L214.232 104.798L214.748 123.816C214.599 124.096 214.464 124.389 214.345 124.694C214.023 125.533 213.828 126.454 213.773 127.4C213.718 128.346 213.803 129.298 214.023 130.197C214.253 131.14 214.626 132.006 215.117 132.736C215.608 133.467 216.206 134.046 216.872 134.436C217.538 134.826 218.256 135.018 218.98 134.999C219.703 134.979 220.416 134.75 221.07 134.324C221.83 133.83 222.489 133.087 222.991 132.159C223.492 131.232 223.819 130.149 223.944 129.006C224.068 127.863 223.986 126.696 223.704 125.607C223.423 124.519 222.95 123.542 222.329 122.764H222.329Z" fill="#FFB8B8"/>
<path d="M254.46 71.9224L251.139 59.9602L245.765 40.5833C245.378 39.1735 244.756 37.8978 243.947 36.8511C243.138 35.8043 242.162 35.0132 241.092 34.5366C241.007 34.4992 240.918 34.4617 240.834 34.4304C239.797 34.0119 238.704 33.8968 237.63 34.093C236.557 34.2893 235.528 34.7922 234.615 35.5673L216.517 50.8339C214.859 52.2289 213.674 54.426 213.213 56.9612C212.751 59.4964 213.048 62.1711 214.041 64.4203C216.305 69.6248 218.771 74.6685 221.43 79.5307C223.539 83.3474 227.466 83.7534 228.147 90H241.491L255 73.8713L254.46 71.9224Z" fill="#CCCCCC"/>
<path d="M47.5 218C53.299 218 58 211.508 58 203.5C58 195.492 53.299 189 47.5 189C41.701 189 37 195.492 37 203.5C37 211.508 41.701 218 47.5 218Z" fill="#A0616A"/>
<path d="M74.1452 193.411C74.2531 193.525 74.3576 193.646 74.4589 193.774C74.9617 194.404 75.3587 195.168 75.624 196.016C75.8893 196.864 76.0168 197.777 75.9982 198.695C75.9796 199.613 75.8153 200.516 75.5161 201.344C75.2169 202.172 74.7894 202.906 74.2619 203.499C74.1389 203.637 74.0106 203.765 73.8775 203.885L74.6182 237.139C74.6393 238.228 74.3959 239.296 73.924 240.187C73.4522 241.077 72.7771 241.741 71.999 242.08L71.9539 242.093L51.6478 244.969C51.0957 245.047 50.5375 244.979 50.0054 244.768C49.4732 244.558 48.9777 244.209 48.5474 243.743C48.1171 243.276 47.7605 242.701 47.4983 242.051C47.2361 241.4 47.0735 240.686 47.0197 239.952C46.966 239.217 47.0223 238.475 47.1853 237.77C47.3483 237.064 47.6149 236.408 47.9695 235.84C48.3242 235.272 48.76 234.803 49.2517 234.461C49.7434 234.118 50.2813 233.908 50.8343 233.843L65.3094 232.148L67.8127 203.349C67.649 203.157 67.4956 202.949 67.3538 202.727C66.5689 201.492 66.1572 199.913 66.1988 198.297C66.2403 196.681 66.732 195.143 67.5784 193.982C68.4248 192.821 69.5656 192.119 70.7791 192.014C71.9926 191.908 73.1923 192.406 74.1453 193.411H74.1452Z" fill="#A0616A"/>
<path d="M65.0009 404H70.4216L73 377H65L65.0009 404Z" fill="#A0616A"/>
<path d="M64 402.001L74.3828 402H74.3832C75.2521 402 76.1126 402.225 76.9154 402.663C77.7181 403.101 78.4476 403.743 79.062 404.553C79.6764 405.362 80.1638 406.323 80.4963 407.38C80.8289 408.438 81 409.571 81 410.716V410.999L64.0003 411L64 402.001Z" fill="#2F2E41"/>
<path d="M11 394.39L15.7714 398L29 376.329L21.9577 371L11 394.39Z" fill="#A0616A"/>
<path d="M11.5736 391L20.6954 398.293L20.6958 398.293C21.4592 398.903 22.1255 399.71 22.6569 400.666C23.1882 401.622 23.5741 402.709 23.7925 403.866C24.0108 405.022 24.0574 406.225 23.9296 407.405C23.8018 408.586 23.502 409.721 23.0475 410.746L22.935 411L8 399.06L11.5736 391Z" fill="#2F2E41"/>
<path d="M71.7868 395H65.6876C65.1938 395.001 64.7171 394.759 64.3499 394.32C63.9827 393.882 63.751 393.278 63.6997 392.626L57.5508 315.889C57.5353 315.695 57.4723 315.514 57.3716 315.373C57.271 315.232 57.1381 315.139 56.9937 315.109C56.8492 315.078 56.7011 315.111 56.5723 315.203C56.4434 315.295 56.3409 315.441 56.2807 315.618L45.188 348.228L25.5491 390.745C25.2949 391.29 24.9014 391.695 24.4405 391.886C23.9797 392.078 23.4823 392.042 23.0396 391.786L15.194 387.204C14.9346 387.052 14.7024 386.829 14.5129 386.549C14.3234 386.269 14.1808 385.939 14.0946 385.581C14.0085 385.222 13.9807 384.843 14.0132 384.469C14.0456 384.096 14.1376 383.735 14.2829 383.412L32.3365 343.278L37.8734 309.463C36.1319 294.798 43.5974 272.996 43.6731 272.778L43.7101 272.671L64.2738 262L64.377 262.168C72.4867 297.501 77.4284 335.526 73.7796 392.568C73.7346 393.23 73.5056 393.846 73.1371 394.295C72.7687 394.745 72.2873 394.996 71.7868 395V395Z" fill="#2F2E41"/>
<path d="M43.2141 276L43.1165 275.736C43.0699 275.609 38.4132 262.956 34.8235 249.432C34.1336 246.816 33.8728 244.045 34.0576 241.293C34.2424 238.541 34.8688 235.869 35.8971 233.445C36.9388 230.996 38.3638 228.853 40.082 227.15C41.8002 225.448 43.7741 224.224 45.8786 223.556V223.556C49.532 222.428 53.3785 223.028 56.7172 225.248C60.056 227.467 62.6647 231.158 64.0682 235.648C66.9156 244.822 66.0081 254.614 65.1541 262.314L65.1371 262.468L65.0282 262.536L43.2141 276Z" fill="#3F3D56"/>
<path d="M61 195H43V185.151C46.9508 183.181 50.8169 181.505 53.1538 185.151C55.2348 185.151 57.2305 186.189 58.7019 188.036C60.1733 189.883 61 192.388 61 195V195Z" fill="#2F2E41"/>
<path d="M42.5001 184C31.9523 184 29 201.093 29 210.736C29 216.114 30.8812 218.038 33.8373 218.688L34.8812 211.49L37.3264 218.998C38.1568 219.004 39.0291 218.983 39.9335 218.961L40.7625 216.754L42.6112 218.921C50.0156 218.936 56 220.331 56 210.736C56 201.093 53.4108 184 42.5001 184Z" fill="#2F2E41"/>
<path d="M90.5309 412H0.469072C0.344666 412 0.225356 411.947 0.137388 411.854C0.0494196 411.76 0 411.633 0 411.5C0 411.367 0.0494196 411.24 0.137388 411.146C0.225356 411.053 0.344666 411 0.469072 411H90.5309C90.6553 411 90.7747 411.053 90.8626 411.146C90.9506 411.24 91 411.367 91 411.5C91 411.633 90.9506 411.76 90.8626 411.854C90.7747 411.947 90.6553 412 90.5309 412Z" fill="#CCCCCC"/>
<path d="M92.5565 207H72.4435C71.2655 206.998 70.136 206.368 69.303 205.248C68.4699 204.127 68.0013 202.609 68 201.024V173.976C68.0013 172.391 68.4699 170.873 69.303 169.752C70.136 168.632 71.2655 168.002 72.4435 168H92.5565C93.7345 168.002 94.864 168.632 95.697 169.752C96.5301 170.873 96.9987 172.391 97 173.976V201.024C96.9987 202.609 96.5301 204.127 95.697 205.248C94.864 206.368 93.7345 206.998 92.5565 207V207Z" fill="white"/>
<path d="M92.5565 207H72.4435C71.2655 206.998 70.136 206.368 69.303 205.248C68.4699 204.127 68.0013 202.609 68 201.024V173.976C68.0013 172.391 68.4699 170.873 69.303 169.752C70.136 168.632 71.2655 168.002 72.4435 168H92.5565C93.7345 168.002 94.864 168.632 95.697 169.752C96.5301 170.873 96.9987 172.391 97 173.976V201.024C96.9987 202.609 96.5301 204.127 95.697 205.248C94.864 206.368 93.7345 206.998 92.5565 207V207ZM72.4435 169.258C71.5135 169.259 70.6218 169.757 69.9641 170.641C69.3065 171.526 68.9365 172.725 68.9355 173.976V201.024C68.9365 202.275 69.3065 203.474 69.9641 204.359C70.6218 205.243 71.5135 205.741 72.4435 205.742H92.5565C93.4865 205.741 94.3782 205.243 95.0359 204.359C95.6936 203.474 96.0635 202.275 96.0645 201.024V173.976C96.0635 172.725 95.6936 171.526 95.0359 170.641C94.3782 169.757 93.4865 169.259 92.5565 169.258H72.4435Z" fill="#3F3D56"/>
<path d="M88.5882 196H75.4118C75.0375 195.999 74.6786 195.8 74.4139 195.446C74.1493 195.092 74.0004 194.612 74 194.111V180.889C74.0004 180.388 74.1493 179.908 74.4139 179.554C74.6786 179.2 75.0375 179.001 75.4118 179H79.1211C79.3624 178.999 79.5998 179.081 79.8104 179.238C80.0211 179.396 80.1978 179.623 80.3235 179.899L81.358 182.148H88.5882C88.9625 182.149 89.3214 182.348 89.5861 182.702C89.8507 183.056 89.9996 183.536 90 184.037V194.111C89.9996 194.612 89.8507 195.092 89.5861 195.446C89.3214 195.8 88.9625 195.999 88.5882 196V196Z" fill="#05263B"/>
<path d="M88.403 202.372C88.4684 202.533 88.5289 202.698 88.5843 202.867C88.8613 203.704 89.0029 204.611 89 205.526C88.997 206.442 88.8495 207.346 88.5671 208.18C88.2847 209.014 87.8738 209.759 87.3614 210.366C86.8489 210.973 86.2464 211.427 85.5934 211.701C85.4415 211.764 85.2872 211.816 85.1311 211.857L76.1952 242.791C75.8998 243.802 75.3687 244.658 74.6807 245.234C73.9927 245.809 73.1844 246.072 72.3759 245.983L72.331 245.972L52.963 238.169C52.4365 237.957 51.9465 237.607 51.5215 237.14C51.0964 236.673 50.7448 236.098 50.4867 235.448C50.2287 234.798 50.0694 234.086 50.0181 233.354C49.9669 232.621 50.0246 231.882 50.1879 231.179C50.3512 230.476 50.617 229.824 50.9698 229.259C51.3227 228.695 51.7556 228.229 52.2436 227.89C52.7315 227.551 53.2649 227.344 53.8129 227.282C54.3609 227.22 54.9126 227.304 55.4362 227.529L69.1401 233.417L79.7495 208.246C79.6558 207.985 79.5758 207.715 79.5103 207.438C79.1509 205.9 79.2316 204.238 79.7366 202.774C80.2417 201.311 81.1351 200.151 82.2433 199.519C83.3516 198.888 84.5957 198.83 85.7339 199.357C86.8722 199.885 87.8235 200.959 88.403 202.372H88.403Z" fill="#A0616A"/>
<path d="M237.105 20.1396C240.637 30.1457 233.152 32.9799 224.579 38.343C216.006 43.7062 209.59 49.5673 206.058 39.5612C202.526 29.5551 199.66 9.6949 211.789 2.10782C224.335 -5.74063 233.573 10.1335 237.105 20.1396Z" fill="#2F2E41"/>
<path d="M219.5 40C225.851 40 231 33.0604 231 24.5C231 15.9396 225.851 9 219.5 9C213.149 9 208 15.9396 208 24.5C208 33.0604 213.149 40 219.5 40Z" fill="#FFB8B8"/>
<path d="M276.486 92.0956C276.091 91.4033 275.696 90.7235 275.297 90.0624C274.781 89.2017 274.262 88.368 273.74 87.5613C267.826 78.3992 261.535 72.6299 254.608 72.0125H254.598L254.496 72L240.693 90.0624L236 96.1996L236.102 96.5364L238.634 105H283C281.001 100.546 278.827 96.2388 276.486 92.0956V92.0956Z" fill="#2F2E41"/>
<path d="M207.142 31L211.208 28.3641L210.641 20.2719L213.36 26.9687L215.304 25.7088L214.973 20.9884L216.559 24.8948L231 15.5335C229.644 11.5517 227.196 8.47623 224.196 6.98373C221.196 5.49122 217.89 5.70389 215.003 7.57496L212.911 8.93169C210.024 10.8028 207.795 14.179 206.713 18.3176C205.631 22.4562 205.785 27.0182 207.142 31V31Z" fill="#2F2E41"/>
<path d="M302.261 308H61.7386C59.6869 307.997 57.7199 306.912 56.2691 304.983C54.8184 303.054 54.0023 300.438 54 297.71V105.539C54.0017 103.54 54.5995 101.624 55.6623 100.211C56.7251 98.7973 58.1662 98.0023 59.6693 98H304.233C305.762 98.0023 307.228 98.811 308.309 100.249C309.39 101.686 309.998 103.636 310 105.669V297.71C309.998 300.438 309.182 303.054 307.731 304.983C306.28 306.912 304.313 307.997 302.261 308Z" fill="#F2F2F2"/>
<path d="M69.4877 298H294.512C296.498 298 298.403 296.949 299.807 295.079C301.211 293.208 302 290.671 302 288.025V124.975C302 122.329 301.211 119.792 299.807 117.921C298.403 116.051 296.498 115 294.512 115H69.4877C67.5019 115 65.5973 116.051 64.1931 117.921C62.7889 119.792 62 122.329 62 124.975V288.025C62 290.671 62.7889 293.208 64.1931 295.079C65.5973 296.949 67.5019 298 69.4877 298Z" fill="white"/>
<path d="M310 105H54V99.9497C54.003 97.311 54.8224 94.7815 56.2784 92.9162C57.7344 91.051 59.7082 90.0022 61.7667 90H302.233C304.292 90.0022 306.266 91.0509 307.722 92.9162C309.178 94.7815 309.997 97.311 310 99.9497V105Z" fill="#05263B"/>
<path d="M68 100C69.1046 100 70 98.8807 70 97.5C70 96.1193 69.1046 95 68 95C66.8954 95 66 96.1193 66 97.5C66 98.8807 66.8954 100 68 100Z" fill="white"/>
<path d="M76 100C77.1046 100 78 98.8807 78 97.5C78 96.1193 77.1046 95 76 95C74.8954 95 74 96.1193 74 97.5C74 98.8807 74.8954 100 76 100Z" fill="white"/>
<path d="M83 100C84.1046 100 85 98.8807 85 97.5C85 96.1193 84.1046 95 83 95C81.8954 95 81 96.1193 81 97.5C81 98.8807 81.8954 100 83 100Z" fill="white"/>
<path d="M189.403 263H168.597C167.378 262.998 166.21 262.368 165.348 261.248C164.486 260.127 164.001 258.609 164 257.024V229.976C164.001 228.391 164.486 226.873 165.348 225.752C166.21 224.632 167.378 224.002 168.597 224H189.403C190.622 224.002 191.79 224.632 192.652 225.752C193.514 226.873 193.999 228.391 194 229.976V257.024C193.999 258.609 193.514 260.127 192.652 261.248C191.79 262.368 190.622 262.998 189.403 263V263ZM168.597 225.258C167.635 225.259 166.712 225.757 166.032 226.641C165.351 227.526 164.969 228.725 164.968 229.976V257.024C164.969 258.275 165.351 259.474 166.032 260.359C166.712 261.243 167.635 261.741 168.597 261.742H189.403C190.365 261.741 191.288 261.243 191.968 260.359C192.648 259.474 193.031 258.275 193.032 257.024V229.976C193.031 228.725 192.648 227.526 191.968 226.641C191.288 225.757 190.365 225.259 189.403 225.258H168.597Z" fill="#CCCCCC"/>
<path d="M184.594 255H172.406C172.033 254.999 171.676 254.8 171.412 254.444C171.149 254.089 171 253.608 171 253.105V232.895C171 232.392 171.149 231.911 171.412 231.556C171.676 231.2 172.033 231.001 172.406 231H181.237C181.558 231 181.868 231.148 182.118 231.418L185.474 235.052C185.639 235.229 185.772 235.454 185.863 235.709C185.954 235.965 186 236.245 186 236.529V253.105C186 253.608 185.851 254.089 185.588 254.444C185.324 254.8 184.967 254.999 184.594 255V255ZM172.406 232.263C172.282 232.263 172.163 232.33 172.075 232.448C171.987 232.567 171.938 232.727 171.937 232.895V253.105C171.938 253.273 171.987 253.433 172.075 253.552C172.163 253.67 172.282 253.737 172.406 253.737H184.594C184.718 253.737 184.837 253.67 184.925 253.552C185.013 253.433 185.062 253.273 185.062 253.105V236.529C185.063 236.434 185.047 236.341 185.017 236.256C184.986 236.171 184.942 236.096 184.887 236.037L181.531 232.402C181.447 232.312 181.344 232.263 181.237 232.263H172.406Z" fill="#CCCCCC"/>
<path d="M182.556 240H175.444C175.327 240 175.214 239.947 175.13 239.854C175.047 239.76 175 239.633 175 239.5C175 239.367 175.047 239.24 175.13 239.146C175.214 239.053 175.327 239 175.444 239H182.556C182.673 239 182.786 239.053 182.87 239.146C182.953 239.24 183 239.367 183 239.5C183 239.633 182.953 239.76 182.87 239.854C182.786 239.947 182.673 240 182.556 240Z" fill="#CCCCCC"/>
<path d="M182.556 244H175.444C175.327 244 175.214 243.947 175.13 243.854C175.047 243.76 175 243.633 175 243.5C175 243.367 175.047 243.24 175.13 243.146C175.214 243.053 175.327 243 175.444 243H182.556C182.673 243 182.786 243.053 182.87 243.146C182.953 243.24 183 243.367 183 243.5C183 243.633 182.953 243.76 182.87 243.854C182.786 243.947 182.673 244 182.556 244Z" fill="#CCCCCC"/>
<path d="M182.556 248H175.444C175.327 248 175.214 247.895 175.13 247.707C175.047 247.52 175 247.265 175 247C175 246.735 175.047 246.48 175.13 246.293C175.214 246.105 175.327 246 175.444 246H182.556C182.673 246 182.786 246.105 182.87 246.293C182.953 246.48 183 246.735 183 247C183 247.265 182.953 247.52 182.87 247.707C182.786 247.895 182.673 248 182.556 248Z" fill="#CCCCCC"/>
<path d="M236.556 263H216.444C215.265 262.998 214.136 262.368 213.303 261.248C212.47 260.127 212.001 258.609 212 257.024V229.976C212.001 228.391 212.47 226.873 213.303 225.752C214.136 224.632 215.265 224.002 216.444 224H236.556C237.735 224.002 238.864 224.632 239.697 225.752C240.53 226.873 240.999 228.391 241 229.976V257.024C240.999 258.609 240.53 260.127 239.697 261.248C238.864 262.368 237.735 262.998 236.556 263V263ZM216.444 225.258C215.513 225.259 214.622 225.757 213.964 226.641C213.306 227.526 212.937 228.725 212.935 229.976V257.024C212.937 258.275 213.306 259.474 213.964 260.359C214.622 261.243 215.513 261.741 216.444 261.742H236.556C237.487 261.741 238.378 261.243 239.036 260.359C239.694 259.474 240.063 258.275 240.065 257.024V229.976C240.063 228.725 239.694 227.526 239.036 226.641C238.378 225.757 237.487 225.259 236.556 225.258H216.444Z" fill="#CCCCCC"/>
<path d="M233.588 250H220.412C220.037 249.999 219.679 249.798 219.414 249.44C219.149 249.082 219 248.597 219 248.091V237.909C219 237.403 219.149 236.918 219.414 236.56C219.679 236.202 220.037 236.001 220.412 236H233.588C233.963 236.001 234.321 236.202 234.586 236.56C234.851 236.918 235 237.403 235 237.909V248.091C235 248.597 234.851 249.082 234.586 249.44C234.321 249.798 233.963 249.999 233.588 250V250ZM220.412 237.273C220.287 237.273 220.167 237.34 220.079 237.459C219.991 237.579 219.941 237.74 219.941 237.909V248.091C219.941 248.26 219.991 248.421 220.079 248.541C220.167 248.66 220.287 248.727 220.412 248.727H233.588C233.713 248.727 233.833 248.66 233.921 248.541C234.009 248.421 234.059 248.26 234.059 248.091V237.909C234.059 237.74 234.009 237.579 233.921 237.459C233.833 237.34 233.713 237.273 233.588 237.273H220.412Z" fill="#CCCCCC"/>
<path d="M227 245C226.736 245 226.476 244.906 226.252 244.728L219.22 239.111C219.115 239.026 219.04 238.892 219.012 238.736C218.984 238.581 219.005 238.418 219.072 238.283C219.138 238.148 219.243 238.051 219.365 238.016C219.486 237.98 219.614 238.007 219.72 238.091L226.751 243.707C226.826 243.767 226.912 243.798 227 243.798C227.088 243.798 227.175 243.767 227.25 243.707L234.28 238.091C234.386 238.007 234.514 237.98 234.635 238.016C234.757 238.051 234.862 238.148 234.928 238.283C234.995 238.418 235.016 238.581 234.988 238.736C234.96 238.892 234.885 239.026 234.78 239.111L227.749 244.728C227.524 244.906 227.265 245.001 227 245V245Z" fill="#CCCCCC"/>
<path d="M141.556 263H121.444C120.265 262.998 119.136 262.368 118.303 261.248C117.47 260.127 117.001 258.609 117 257.024V229.976C117.001 228.391 117.47 226.873 118.303 225.752C119.136 224.632 120.265 224.002 121.444 224H141.556C142.735 224.002 143.864 224.632 144.697 225.752C145.53 226.873 145.999 228.391 146 229.976V257.024C145.999 258.609 145.53 260.127 144.697 261.248C143.864 262.368 142.735 262.998 141.556 263V263ZM121.444 225.258C120.513 225.259 119.622 225.757 118.964 226.641C118.306 227.526 117.937 228.725 117.935 229.976V257.024C117.937 258.275 118.306 259.474 118.964 260.359C119.622 261.243 120.513 261.741 121.444 261.742H141.556C142.487 261.741 143.378 261.243 144.036 260.359C144.694 259.474 145.063 258.275 145.065 257.024V229.976C145.063 228.725 144.694 227.526 144.036 226.641C143.378 225.757 142.487 225.259 141.556 225.258H121.444Z" fill="#CCCCCC"/>
<path d="M137.588 250H124.412C124.037 249.999 123.679 249.798 123.414 249.44C123.149 249.082 123 248.597 123 248.091V237.909C123 237.403 123.149 236.918 123.414 236.56C123.679 236.202 124.037 236.001 124.412 236H137.588C137.963 236.001 138.321 236.202 138.586 236.56C138.851 236.918 139 237.403 139 237.909V248.091C139 248.597 138.851 249.082 138.586 249.44C138.321 249.798 137.963 249.999 137.588 250V250ZM124.412 237.273C124.287 237.273 124.167 237.34 124.079 237.459C123.991 237.579 123.941 237.74 123.941 237.909V248.091C123.941 248.26 123.991 248.421 124.079 248.541C124.167 248.66 124.287 248.727 124.412 248.727H137.588C137.713 248.727 137.833 248.66 137.921 248.541C138.009 248.421 138.059 248.26 138.059 248.091V237.909C138.059 237.74 138.009 237.579 137.921 237.459C137.833 237.34 137.713 237.273 137.588 237.273H124.412Z" fill="#CCCCCC"/>
<path d="M136.005 250H125.995C125.82 250 125.649 249.943 125.497 249.834C125.346 249.725 125.221 249.568 125.133 249.379C125.046 249.191 125 248.977 125 248.759C125 248.541 125.046 248.327 125.133 248.138L128.149 241.621C128.236 241.432 128.361 241.275 128.513 241.166C128.664 241.057 128.836 241 129.01 241C129.185 241 129.356 241.057 129.508 241.166C129.659 241.275 129.784 241.432 129.872 241.621L131.819 245.83L132.947 243.391C133.035 243.203 133.16 243.046 133.312 242.937C133.463 242.828 133.634 242.771 133.809 242.771C133.984 242.771 134.155 242.828 134.306 242.937C134.458 243.046 134.583 243.203 134.671 243.391L136.867 248.138C136.954 248.327 137 248.541 137 248.759C137 248.977 136.954 249.191 136.867 249.379C136.779 249.568 136.654 249.725 136.502 249.834C136.351 249.943 136.18 250 136.005 250H136.005ZM136.005 248.759L133.809 244.012L132.25 247.381C132.206 247.476 132.144 247.554 132.068 247.609C131.992 247.663 131.907 247.692 131.819 247.692V247.692C131.732 247.692 131.646 247.663 131.57 247.609C131.495 247.554 131.432 247.476 131.388 247.381L129.01 242.241L125.995 248.759H136.005Z" fill="#CCCCCC"/>
<path d="M136 241C136.552 241 137 240.552 137 240C137 239.448 136.552 239 136 239C135.448 239 135 239.448 135 240C135 240.552 135.448 241 136 241Z" fill="#CCCCCC"/>
<path d="M360.999 404L354.901 403.999L352 374L361 374.001L360.999 404Z" fill="#FFB8B8"/>
<path d="M362 411L344 410.999V410.684C344 409.413 344.181 408.153 344.533 406.978C344.885 405.803 345.401 404.736 346.052 403.836C346.703 402.937 347.475 402.224 348.325 401.737C349.175 401.25 350.086 401 351.006 401H351.006L362 401.001L362 411Z" fill="#2F2E41"/>
<path d="M383.999 404L378.579 403.999L376 374L384 374.001L383.999 404Z" fill="#FFB8B8"/>
<path d="M386 411L367 410.999V410.684C367 409.413 367.191 408.153 367.563 406.978C367.935 405.803 368.479 404.736 369.166 403.836C369.853 402.937 370.668 402.224 371.565 401.737C372.462 401.25 373.424 401 374.395 401H374.396L386 401.001L386 411Z" fill="#2F2E41"/>
<path d="M382.255 390.878L376.979 388.733C376.585 388.574 376.236 388.263 375.974 387.839C375.713 387.416 375.55 386.899 375.508 386.353L370.589 324.046C370.585 323.971 370.56 323.901 370.519 323.849C370.477 323.797 370.423 323.769 370.366 323.769C370.31 323.761 370.253 323.784 370.209 323.831C370.165 323.879 370.136 323.947 370.129 324.023L361.89 384.387C361.84 384.753 361.736 385.102 361.584 385.414C361.431 385.726 361.234 385.994 361.003 386.202C360.772 386.41 360.512 386.555 360.239 386.627C359.966 386.699 359.684 386.698 359.412 386.622L352.669 384.766C352.174 384.628 351.734 384.256 351.428 383.718C351.122 383.181 350.972 382.514 351.004 381.84L356.016 282.901L390 278L384.95 388.375C384.917 389.084 384.684 389.75 384.297 390.238C383.91 390.726 383.398 390.998 382.866 391C382.659 391 382.453 390.959 382.255 390.878V390.878Z" fill="#2F2E41"/>
<path d="M382.5 196C388.851 196 394 189.284 394 181C394 172.716 388.851 166 382.5 166C376.149 166 371 172.716 371 181C371 189.284 376.149 196 382.5 196Z" fill="#FFB8B8"/>
<path d="M356 283.631L363.484 221.016C363.881 217.686 364.808 214.508 366.203 211.692C367.597 208.876 369.426 206.487 371.57 204.683C373.713 202.88 376.12 201.704 378.632 201.233C381.144 200.762 383.702 201.007 386.137 201.953V201.953C390.395 203.589 394.04 207.275 396.361 212.292C398.683 217.309 399.513 223.295 398.691 229.082L390.861 285L356 283.631Z" fill="#05263B"/>
<path d="M385.432 293.949C386.011 293.45 386.499 292.793 386.862 292.022C387.226 291.252 387.454 290.387 387.533 289.489C387.612 288.59 387.538 287.68 387.318 286.823C387.097 285.966 386.735 285.182 386.257 284.527L394 265L385.28 266.212L379.263 284.569C378.471 285.689 378.022 287.147 378.001 288.669C377.98 290.191 378.388 291.67 379.148 292.827C379.908 293.983 380.968 294.736 382.126 294.942C383.284 295.149 384.46 294.796 385.432 293.949V293.949Z" fill="#FFB8B8"/>
<path d="M386.949 280.973C386.507 280.893 386.094 280.645 385.765 280.26L382.704 276.67C382.373 276.28 382.145 275.771 382.05 275.212C381.954 274.652 381.997 274.068 382.171 273.54L388.289 255.136L387.421 218.772C387.546 217.603 387.851 216.477 388.319 215.458C388.787 214.439 389.409 213.546 390.149 212.832C390.888 212.118 391.732 211.596 392.631 211.296C393.53 210.995 394.466 210.923 395.387 211.082C396.308 211.242 397.195 211.63 397.998 212.225C398.801 212.82 399.503 213.609 400.065 214.549C400.627 215.489 401.038 216.559 401.274 217.7C401.51 218.842 401.566 220.03 401.439 221.199L402.923 244.058C403.374 250.996 401.825 257.905 398.562 263.501L389.021 279.87C388.838 280.185 388.604 280.447 388.335 280.64C388.067 280.832 387.769 280.951 387.462 280.988C387.291 281.008 387.119 281.003 386.949 280.973V280.973Z" fill="#05263B"/>
<path d="M316.082 172.402C316.204 173.292 316.468 174.136 316.856 174.873C317.243 175.61 317.746 176.223 318.327 176.668C318.908 177.113 319.555 177.38 320.22 177.45C320.886 177.52 321.555 177.391 322.18 177.072L332.555 194L335 183.052L324.773 168.656C324.309 167.267 323.485 166.158 322.458 165.538C321.431 164.918 320.272 164.831 319.201 165.292C318.13 165.754 317.221 166.733 316.646 168.043C316.071 169.354 315.87 170.904 316.082 172.402V172.402Z" fill="#FFB8B8"/>
<path d="M324.302 179.526C324.524 179.04 324.853 178.655 325.246 178.421L328.909 176.245C329.306 176.011 329.749 175.942 330.176 176.049C330.604 176.156 330.996 176.433 331.3 176.842L341.879 191.157L367.655 204.311C368.427 204.912 369.1 205.707 369.638 206.651C370.176 207.595 370.566 208.668 370.788 209.811C371.01 210.953 371.058 212.142 370.93 213.308C370.802 214.475 370.501 215.598 370.043 216.611C369.585 217.625 368.979 218.51 368.261 219.215C367.543 219.921 366.726 220.434 365.857 220.724C364.988 221.014 364.084 221.076 363.196 220.907C362.309 220.737 361.456 220.34 360.685 219.736L344.129 212.563C339.104 210.387 334.852 205.885 332.162 199.895L324.294 182.375C324.143 182.038 324.047 181.663 324.014 181.275C323.98 180.886 324.009 180.492 324.098 180.119C324.148 179.912 324.216 179.713 324.302 179.526V179.526Z" fill="#05263B"/>
<path opacity="0.1" d="M392 234L391.537 253.997L383 274L390.128 251.708L392 234Z" fill="black"/>
<path d="M380.908 183.64C380.169 183.763 379.42 183.537 378.8 183.003C378.18 182.469 377.732 181.664 377.538 180.736C377.352 179.669 376.943 178.687 376.356 177.895C375.769 177.104 375.026 176.534 374.207 176.245C372.047 175.61 369.407 176.919 367.825 174.811C367.486 174.33 367.241 173.752 367.11 173.125C366.978 172.498 366.965 171.839 367.07 171.204C367.361 169.156 368.499 167.608 369.736 166.371C372.341 163.779 375.494 162.261 378.78 162.017C380.481 161.954 382.183 162.063 383.871 162.344C385.638 162.487 387.386 162.899 389.078 163.57C391.006 164.507 392.72 166.055 394.06 168.071C395.401 170.087 396.325 172.506 396.748 175.104C397.135 177.71 397.076 180.393 396.574 182.966C396.073 185.54 395.141 187.941 393.845 190.003C392.293 192.492 390.292 194.455 388.016 195.72C387.474 196.049 386.852 196.09 386.287 195.833C384.87 195.107 385.101 192.845 385.748 191.336C386.439 189.722 387.504 188.158 386.947 186.194C386.669 185.282 386.133 184.54 385.448 184.115C384.039 183.189 382.463 183.408 380.948 183.634L380.908 183.64Z" fill="#2F2E41"/>
<path d="M312.264 192H169.736C167.685 191.997 165.719 190.914 164.268 188.988C162.818 187.063 162.002 184.453 162 181.73V141.27C162.002 138.547 162.818 135.937 164.268 134.012C165.719 132.086 167.685 131.003 169.736 131H312.264C314.315 131.003 316.281 132.086 317.732 134.012C319.182 135.937 319.998 138.547 320 141.27V181.73C319.998 184.453 319.182 187.063 317.732 188.988C316.281 190.914 314.315 191.997 312.264 192V192Z" fill="white"/>
<path d="M312.053 193H169.947C167.84 192.997 165.82 191.874 164.33 189.878C162.84 187.882 162.002 185.176 162 182.354V141.646C162.002 138.824 162.84 136.118 164.33 134.122C165.82 132.126 167.84 131.003 169.947 131H312.053C314.16 131.003 316.18 132.126 317.67 134.122C319.16 136.118 319.998 138.824 320 141.646V182.354C319.998 185.176 319.16 187.882 317.67 189.878C316.18 191.874 314.16 192.997 312.053 193ZM169.947 132.253C168.088 132.255 166.305 133.246 164.991 135.007C163.676 136.768 162.937 139.156 162.935 141.646V182.354C162.937 184.844 163.676 187.232 164.991 188.993C166.305 190.754 168.088 191.745 169.947 191.747H312.053C313.912 191.745 315.695 190.754 317.009 188.993C318.324 187.232 319.063 184.844 319.065 182.354V141.646C319.063 139.156 318.324 136.768 317.009 135.007C315.695 133.246 313.912 132.255 312.053 132.253H169.947Z" fill="#3F3D56"/>
<path d="M294.283 182H186.717C184.671 181.997 182.709 180.932 181.263 179.039C179.816 177.146 179.002 174.58 179 171.903V151.097C179.002 148.42 179.816 145.854 181.263 143.961C182.709 142.068 184.671 141.003 186.717 141H294.283C296.329 141.003 298.291 142.068 299.737 143.961C301.184 145.854 301.998 148.42 302 151.097V171.903C301.998 174.58 301.184 177.146 299.737 179.039C298.291 180.932 296.329 181.997 294.283 182V182Z" fill="#F2F2F2"/>
<path d="M210 171C214.971 171 219 165.404 219 158.5C219 151.596 214.971 146 210 146C205.029 146 201 151.596 201 158.5C201 165.404 205.029 171 210 171Z" fill="#FF6584"/>
<path d="M287.832 180.759L274.741 166.207L261.877 151.905C261.537 151.528 261.108 151.321 260.665 151.323C260.222 151.324 259.793 151.532 259.455 151.911L246.632 166.278L243.5 169.788L238.777 164.538L224.425 148.583C224.085 148.205 223.656 147.999 223.213 148C222.77 148.001 222.342 148.21 222.003 148.589L207.698 164.617L193.167 180.898C193.093 180.98 193.04 181.091 193.016 181.214C192.991 181.338 192.996 181.469 193.029 181.588C193.062 181.708 193.122 181.812 193.201 181.885C193.28 181.958 193.375 181.997 193.471 181.997L223.262 181.921L232.692 181.897L232.6 182L260.71 181.928L287.531 181.86C287.627 181.86 287.721 181.82 287.8 181.747C287.879 181.673 287.939 181.569 287.972 181.449C288.005 181.329 288.009 181.198 287.984 181.075C287.959 180.952 287.906 180.841 287.832 180.759Z" fill="#3F3D56"/>
<path d="M410.531 412H320.469C320.345 412 320.225 411.947 320.137 411.854C320.049 411.76 320 411.633 320 411.5C320 411.367 320.049 411.24 320.137 411.146C320.225 411.053 320.345 411 320.469 411H410.531C410.655 411 410.775 411.053 410.863 411.146C410.951 411.24 411 411.367 411 411.5C411 411.633 410.951 411.76 410.863 411.854C410.775 411.947 410.655 412 410.531 412Z" fill="#CCCCCC"/>
<path d="M283.201 82.2777C282.826 81.4722 282.332 80.776 281.747 80.2318C281.162 79.6875 280.5 79.3066 279.801 79.1122C279.544 79.0409 279.284 78.9973 279.022 78.9819L243.29 36.7008C242.588 35.746 241.652 35.154 240.65 35.0311C240.452 35.0011 240.253 34.9928 240.054 35.0063C239.229 35.0559 238.434 35.4223 237.764 36.0608C237.095 36.6993 236.58 37.5821 236.284 38.6014C235.987 39.6207 235.921 40.7322 236.095 41.8001C236.268 42.868 236.672 43.846 237.259 44.6145L250.939 60.3985L273.404 86.3122C273.422 86.8002 273.477 87.2847 273.568 87.7584C273.837 89.1307 274.414 90.3623 275.224 91.2902C276.034 92.218 277.038 92.7981 278.103 92.9535C279.074 93.1036 280.057 92.8885 280.94 92.3328C281.64 91.8995 282.261 91.2706 282.76 90.4894C282.812 90.4087 282.859 90.3342 282.905 90.2473C283.561 89.1163 283.941 87.7475 283.994 86.3236C284.046 84.8996 283.77 83.4883 283.201 82.2777H283.201Z" fill="#FFB8B8"/>
<path d="M222.329 122.764L222.007 104.798L221.736 89.8887L221.55 79.4553L221.183 59.1175C221.11 58.0286 220.809 56.9923 220.315 56.1351C219.821 55.2779 219.156 54.6369 218.402 54.2903C217.647 53.9438 216.836 53.9066 216.066 54.1835C215.297 54.4603 214.603 55.0391 214.068 55.8493C213.943 56.0344 213.829 56.2344 213.729 56.4469C213.171 57.5445 212.92 58.8818 213.022 60.2131L213.828 89.8887L214.232 104.798L214.748 123.816C214.599 124.096 214.464 124.389 214.345 124.694C214.023 125.533 213.828 126.454 213.773 127.4C213.718 128.346 213.803 129.298 214.023 130.197C214.253 131.14 214.626 132.006 215.117 132.736C215.608 133.467 216.206 134.046 216.872 134.436C217.538 134.826 218.256 135.018 218.98 134.999C219.703 134.979 220.416 134.75 221.07 134.324C221.83 133.83 222.489 133.087 222.991 132.159C223.492 131.232 223.819 130.149 223.944 129.006C224.068 127.863 223.986 126.696 223.704 125.607C223.423 124.519 222.95 123.542 222.329 122.764H222.329Z" fill="#FFB8B8"/>
<path d="M254.46 71.9224L251.139 59.9602L245.765 40.5833C245.378 39.1735 244.756 37.8978 243.947 36.8511C243.138 35.8043 242.162 35.0132 241.092 34.5366C241.007 34.4992 240.918 34.4617 240.834 34.4304C239.797 34.0119 238.704 33.8968 237.63 34.093C236.557 34.2893 235.528 34.7922 234.615 35.5673L216.517 50.8339C214.859 52.2289 213.674 54.426 213.213 56.9612C212.751 59.4964 213.048 62.1711 214.041 64.4203C216.305 69.6248 218.771 74.6685 221.43 79.5307C223.539 83.3474 227.466 83.7534 228.147 90H241.491L255 73.8713L254.46 71.9224Z" fill="#CCCCCC"/>
<path d="M47.5 218C53.299 218 58 211.508 58 203.5C58 195.492 53.299 189 47.5 189C41.701 189 37 195.492 37 203.5C37 211.508 41.701 218 47.5 218Z" fill="#A0616A"/>
<path d="M74.1452 193.411C74.2531 193.525 74.3576 193.646 74.4589 193.774C74.9617 194.404 75.3587 195.168 75.624 196.016C75.8893 196.864 76.0168 197.777 75.9982 198.695C75.9796 199.613 75.8153 200.516 75.5161 201.344C75.2169 202.172 74.7894 202.906 74.2619 203.499C74.1389 203.637 74.0106 203.765 73.8775 203.885L74.6182 237.139C74.6393 238.228 74.3959 239.296 73.924 240.187C73.4522 241.077 72.7771 241.741 71.999 242.08L71.9539 242.093L51.6478 244.969C51.0957 245.047 50.5375 244.979 50.0054 244.768C49.4732 244.558 48.9777 244.209 48.5474 243.743C48.1171 243.276 47.7605 242.701 47.4983 242.051C47.2361 241.4 47.0735 240.686 47.0197 239.952C46.966 239.217 47.0223 238.475 47.1853 237.77C47.3483 237.064 47.6149 236.408 47.9695 235.84C48.3242 235.272 48.76 234.803 49.2517 234.461C49.7434 234.118 50.2813 233.908 50.8343 233.843L65.3094 232.148L67.8127 203.349C67.649 203.157 67.4956 202.949 67.3538 202.727C66.5689 201.492 66.1572 199.913 66.1988 198.297C66.2403 196.681 66.732 195.143 67.5784 193.982C68.4248 192.821 69.5656 192.119 70.7791 192.014C71.9926 191.908 73.1923 192.406 74.1453 193.411H74.1452Z" fill="#A0616A"/>
<path d="M65.0009 404H70.4216L73 377H65L65.0009 404Z" fill="#A0616A"/>
<path d="M64 402.001L74.3828 402H74.3832C75.2521 402 76.1126 402.225 76.9154 402.663C77.7181 403.101 78.4476 403.743 79.062 404.553C79.6764 405.362 80.1638 406.323 80.4963 407.38C80.8289 408.438 81 409.571 81 410.716V410.999L64.0003 411L64 402.001Z" fill="#2F2E41"/>
<path d="M11 394.39L15.7714 398L29 376.329L21.9577 371L11 394.39Z" fill="#A0616A"/>
<path d="M11.5736 391L20.6954 398.293L20.6958 398.293C21.4592 398.903 22.1255 399.71 22.6569 400.666C23.1882 401.622 23.5741 402.709 23.7925 403.866C24.0108 405.022 24.0574 406.225 23.9296 407.405C23.8018 408.586 23.502 409.721 23.0475 410.746L22.935 411L8 399.06L11.5736 391Z" fill="#2F2E41"/>
<path d="M71.7868 395H65.6876C65.1938 395.001 64.7171 394.759 64.3499 394.32C63.9827 393.882 63.751 393.278 63.6997 392.626L57.5508 315.889C57.5353 315.695 57.4723 315.514 57.3716 315.373C57.271 315.232 57.1381 315.139 56.9937 315.109C56.8492 315.078 56.7011 315.111 56.5723 315.203C56.4434 315.295 56.3409 315.441 56.2807 315.618L45.188 348.228L25.5491 390.745C25.2949 391.29 24.9014 391.695 24.4405 391.886C23.9797 392.078 23.4823 392.042 23.0396 391.786L15.194 387.204C14.9346 387.052 14.7024 386.829 14.5129 386.549C14.3234 386.269 14.1808 385.939 14.0946 385.581C14.0085 385.222 13.9807 384.843 14.0132 384.469C14.0456 384.096 14.1376 383.735 14.2829 383.412L32.3365 343.278L37.8734 309.463C36.1319 294.798 43.5974 272.996 43.6731 272.778L43.7101 272.671L64.2738 262L64.377 262.168C72.4867 297.501 77.4284 335.526 73.7796 392.568C73.7346 393.23 73.5056 393.846 73.1371 394.295C72.7687 394.745 72.2873 394.996 71.7868 395V395Z" fill="#2F2E41"/>
<path d="M43.2141 276L43.1165 275.736C43.0699 275.609 38.4132 262.956 34.8235 249.432C34.1336 246.816 33.8728 244.045 34.0576 241.293C34.2424 238.541 34.8688 235.869 35.8971 233.445C36.9388 230.996 38.3638 228.853 40.082 227.15C41.8002 225.448 43.7741 224.224 45.8786 223.556V223.556C49.532 222.428 53.3785 223.028 56.7172 225.248C60.056 227.467 62.6647 231.158 64.0682 235.648C66.9156 244.822 66.0081 254.614 65.1541 262.314L65.1371 262.468L65.0282 262.536L43.2141 276Z" fill="#3F3D56"/>
<path d="M61 195H43V185.151C46.9508 183.181 50.8169 181.505 53.1538 185.151C55.2348 185.151 57.2305 186.189 58.7019 188.036C60.1733 189.883 61 192.388 61 195V195Z" fill="#2F2E41"/>
<path d="M42.5001 184C31.9523 184 29 201.093 29 210.736C29 216.114 30.8812 218.038 33.8373 218.688L34.8812 211.49L37.3264 218.998C38.1568 219.004 39.0291 218.983 39.9335 218.961L40.7625 216.754L42.6112 218.921C50.0156 218.936 56 220.331 56 210.736C56 201.093 53.4108 184 42.5001 184Z" fill="#2F2E41"/>
<path d="M90.5309 412H0.469072C0.344666 412 0.225356 411.947 0.137388 411.854C0.0494196 411.76 0 411.633 0 411.5C0 411.367 0.0494196 411.24 0.137388 411.146C0.225356 411.053 0.344666 411 0.469072 411H90.5309C90.6553 411 90.7747 411.053 90.8626 411.146C90.9506 411.24 91 411.367 91 411.5C91 411.633 90.9506 411.76 90.8626 411.854C90.7747 411.947 90.6553 412 90.5309 412Z" fill="#CCCCCC"/>
<path d="M92.5565 207H72.4435C71.2655 206.998 70.136 206.368 69.303 205.248C68.4699 204.127 68.0013 202.609 68 201.024V173.976C68.0013 172.391 68.4699 170.873 69.303 169.752C70.136 168.632 71.2655 168.002 72.4435 168H92.5565C93.7345 168.002 94.864 168.632 95.697 169.752C96.5301 170.873 96.9987 172.391 97 173.976V201.024C96.9987 202.609 96.5301 204.127 95.697 205.248C94.864 206.368 93.7345 206.998 92.5565 207V207Z" fill="white"/>
<path d="M92.5565 207H72.4435C71.2655 206.998 70.136 206.368 69.303 205.248C68.4699 204.127 68.0013 202.609 68 201.024V173.976C68.0013 172.391 68.4699 170.873 69.303 169.752C70.136 168.632 71.2655 168.002 72.4435 168H92.5565C93.7345 168.002 94.864 168.632 95.697 169.752C96.5301 170.873 96.9987 172.391 97 173.976V201.024C96.9987 202.609 96.5301 204.127 95.697 205.248C94.864 206.368 93.7345 206.998 92.5565 207V207ZM72.4435 169.258C71.5135 169.259 70.6218 169.757 69.9641 170.641C69.3065 171.526 68.9365 172.725 68.9355 173.976V201.024C68.9365 202.275 69.3065 203.474 69.9641 204.359C70.6218 205.243 71.5135 205.741 72.4435 205.742H92.5565C93.4865 205.741 94.3782 205.243 95.0359 204.359C95.6936 203.474 96.0635 202.275 96.0645 201.024V173.976C96.0635 172.725 95.6936 171.526 95.0359 170.641C94.3782 169.757 93.4865 169.259 92.5565 169.258H72.4435Z" fill="#3F3D56"/>
<path d="M88.5882 196H75.4118C75.0375 195.999 74.6786 195.8 74.4139 195.446C74.1493 195.092 74.0004 194.612 74 194.111V180.889C74.0004 180.388 74.1493 179.908 74.4139 179.554C74.6786 179.2 75.0375 179.001 75.4118 179H79.1211C79.3624 178.999 79.5998 179.081 79.8104 179.238C80.0211 179.396 80.1978 179.623 80.3235 179.899L81.358 182.148H88.5882C88.9625 182.149 89.3214 182.348 89.5861 182.702C89.8507 183.056 89.9996 183.536 90 184.037V194.111C89.9996 194.612 89.8507 195.092 89.5861 195.446C89.3214 195.8 88.9625 195.999 88.5882 196V196Z" fill="#05263B"/>
<path d="M88.403 202.372C88.4684 202.533 88.5289 202.698 88.5843 202.867C88.8613 203.704 89.0029 204.611 89 205.526C88.997 206.442 88.8495 207.346 88.5671 208.18C88.2847 209.014 87.8738 209.759 87.3614 210.366C86.8489 210.973 86.2464 211.427 85.5934 211.701C85.4415 211.764 85.2872 211.816 85.1311 211.857L76.1952 242.791C75.8998 243.802 75.3687 244.658 74.6807 245.234C73.9927 245.809 73.1844 246.072 72.3759 245.983L72.331 245.972L52.963 238.169C52.4365 237.957 51.9465 237.607 51.5215 237.14C51.0964 236.673 50.7448 236.098 50.4867 235.448C50.2287 234.798 50.0694 234.086 50.0181 233.354C49.9669 232.621 50.0246 231.882 50.1879 231.179C50.3512 230.476 50.617 229.824 50.9698 229.259C51.3227 228.695 51.7556 228.229 52.2436 227.89C52.7315 227.551 53.2649 227.344 53.8129 227.282C54.3609 227.22 54.9126 227.304 55.4362 227.529L69.1401 233.417L79.7495 208.246C79.6558 207.985 79.5758 207.715 79.5103 207.438C79.1509 205.9 79.2316 204.238 79.7366 202.774C80.2417 201.311 81.1351 200.151 82.2433 199.519C83.3516 198.888 84.5957 198.83 85.7339 199.357C86.8722 199.885 87.8235 200.959 88.403 202.372H88.403Z" fill="#A0616A"/>
</svg>
