<svg width="561" height="404" viewBox="0 0 561 404" fill="none" xmlns="http://www.w3.org/2000/svg">
<path d="M120.5 359C136.792 359 150 342.658 150 322.5C150 302.342 136.792 286 120.5 286C104.208 286 91 302.342 91 322.5C91 342.658 104.208 359 120.5 359Z" fill="#F2F2F2"/>
<path d="M126 354C142.016 354 155 337.435 155 317C155 296.565 142.016 280 126 280C109.984 280 97 296.565 97 317C97 337.435 109.984 354 126 354Z" fill="#05263B"/>
<path d="M511 276H149V277H511V276Z" fill="#3F3D56"/>
<path d="M337.313 11.3108H208.882V8H150.647V11.3108H21.6873C20.5465 11.3108 19.4168 11.5919 18.3628 12.1379C17.3088 12.684 16.3512 13.4843 15.5445 14.4933C14.7378 15.5023 14.0979 16.7001 13.6613 18.0184C13.2247 19.3367 13 20.7496 13 22.1765V242.134C13 245.016 13.9153 247.78 15.5445 249.817C17.1737 251.855 19.3833 253 21.6873 253H337.313C339.617 253 341.826 251.855 343.456 249.817C345.085 247.78 346 245.016 346 242.134V22.1765C346 20.7496 345.775 19.3367 345.339 18.0184C344.902 16.7001 344.262 15.5023 343.456 14.4933C342.649 13.4843 341.691 12.684 340.637 12.1379C339.583 11.5919 338.453 11.3108 337.313 11.3108V11.3108Z" fill="#3F3D56"/>
<path d="M334 31H25V249H334V31Z" fill="#05263B"/>
<path d="M179.5 25C180.881 25 182 23.2091 182 21C182 18.7909 180.881 17 179.5 17C178.119 17 177 18.7909 177 21C177 23.2091 178.119 25 179.5 25Z" fill="#05263B"/>
<path opacity="0.1" d="M245 249H25V31L245 249Z" fill="black"/>
<path d="M73 233C89.5685 233 103 216.435 103 196C103 175.565 89.5685 159 73 159C56.4315 159 43 175.565 43 196C43 216.435 56.4315 233 73 233Z" fill="#F2F2F2"/>
<path d="M279 149H251V156H279V149Z" fill="#3F3D56"/>
<path d="M315 89H216V92H315V89Z" fill="#3F3D56"/>
<path d="M315 99H216V104H315V99Z" fill="#3F3D56"/>
<path d="M315 111H216V114H315V111Z" fill="#3F3D56"/>
<path d="M315 120H216V124H315V120Z" fill="#3F3D56"/>
<path d="M315 131H216V134H315V131Z" fill="#3F3D56"/>
<path d="M315 36H303V50H315V36Z" fill="#F2F2F2"/>
<path d="M320 58H306V39H320V58ZM306.609 57.1739H319.391V39.8261H306.609V57.1739Z" fill="#3F3D56"/>
<path d="M354.645 245.259H324.444V242.539C324.444 242.468 324.433 242.398 324.412 242.333C324.39 242.268 324.358 242.208 324.318 242.158C324.278 242.108 324.23 242.068 324.178 242.041C324.126 242.014 324.07 242 324.013 242H313.658C313.602 242 313.546 242.014 313.493 242.041C313.441 242.068 313.393 242.108 313.353 242.158C313.313 242.208 313.281 242.268 313.26 242.333C313.238 242.398 313.227 242.468 313.227 242.539V245.259H306.755V242.539C306.755 242.468 306.744 242.398 306.722 242.333C306.701 242.268 306.669 242.208 306.629 242.158C306.589 242.108 306.541 242.068 306.489 242.041C306.437 242.014 306.381 242 306.324 242H295.969C295.913 242 295.856 242.014 295.804 242.041C295.752 242.068 295.704 242.108 295.664 242.158C295.624 242.208 295.592 242.268 295.571 242.333C295.549 242.398 295.538 242.468 295.538 242.539V245.259H289.066V242.539C289.066 242.468 289.055 242.398 289.033 242.333C289.012 242.268 288.98 242.208 288.94 242.158C288.9 242.108 288.852 242.068 288.8 242.041C288.748 242.014 288.691 242 288.635 242H278.28C278.224 242 278.167 242.014 278.115 242.041C278.063 242.068 278.015 242.108 277.975 242.158C277.935 242.208 277.903 242.268 277.882 242.333C277.86 242.398 277.849 242.468 277.849 242.539V245.259H271.377V242.539C271.377 242.468 271.366 242.398 271.344 242.333C271.323 242.268 271.291 242.208 271.251 242.158C271.211 242.108 271.163 242.068 271.111 242.041C271.058 242.014 271.002 242 270.946 242H260.591C260.534 242 260.478 242.014 260.426 242.041C260.374 242.068 260.326 242.108 260.286 242.158C260.246 242.208 260.214 242.268 260.192 242.333C260.171 242.398 260.16 242.468 260.16 242.539V245.259H253.688V242.539C253.688 242.468 253.677 242.398 253.655 242.333C253.633 242.268 253.602 242.208 253.562 242.158C253.522 242.108 253.474 242.068 253.422 242.041C253.369 242.014 253.313 242 253.257 242H242.902C242.845 242 242.789 242.014 242.737 242.041C242.684 242.068 242.637 242.108 242.597 242.158C242.557 242.208 242.525 242.268 242.503 242.333C242.482 242.398 242.47 242.468 242.47 242.539V245.259H235.999V242.539C235.999 242.468 235.988 242.398 235.966 242.333C235.944 242.268 235.913 242.208 235.872 242.158C235.832 242.108 235.785 242.068 235.732 242.041C235.68 242.014 235.624 242 235.567 242H225.213C225.156 242 225.1 242.014 225.048 242.041C224.995 242.068 224.948 242.108 224.908 242.158C224.868 242.208 224.836 242.268 224.814 242.333C224.792 242.398 224.781 242.468 224.781 242.539V245.259H218.31V242.539C218.31 242.468 218.299 242.398 218.277 242.333C218.255 242.268 218.223 242.208 218.183 242.158C218.143 242.108 218.096 242.068 218.043 242.041C217.991 242.014 217.935 242 217.878 242H136.767C136.71 242 136.654 242.014 136.602 242.041C136.55 242.068 136.502 242.108 136.462 242.158C136.422 242.208 136.39 242.268 136.369 242.333C136.347 242.398 136.336 242.468 136.336 242.539V245.259H129.864V242.539C129.864 242.468 129.853 242.398 129.831 242.333C129.81 242.268 129.778 242.208 129.738 242.158C129.698 242.108 129.65 242.068 129.598 242.041C129.545 242.014 129.489 242 129.433 242H119.078C119.021 242 118.965 242.014 118.913 242.041C118.861 242.068 118.813 242.108 118.773 242.158C118.733 242.208 118.701 242.268 118.679 242.333C118.658 242.398 118.647 242.468 118.647 242.539V245.259H112.175V242.539C112.175 242.468 112.164 242.398 112.142 242.333C112.12 242.268 112.089 242.208 112.049 242.158C112.009 242.108 111.961 242.068 111.909 242.041C111.856 242.014 111.8 242 111.743 242H101.389C101.332 242 101.276 242.014 101.224 242.041C101.171 242.068 101.124 242.108 101.084 242.158C101.044 242.208 101.012 242.268 100.99 242.333C100.969 242.398 100.957 242.468 100.957 242.539V245.259H94.4858V242.539C94.4858 242.468 94.4747 242.398 94.453 242.333C94.4313 242.268 94.3995 242.208 94.3595 242.158C94.3194 242.108 94.2718 242.068 94.2195 242.041C94.1671 242.014 94.111 242 94.0544 242H83.6998C83.6431 242 83.587 242.014 83.5347 242.041C83.4823 242.068 83.4347 242.108 83.3947 242.158C83.3546 242.208 83.3228 242.268 83.3012 242.333C83.2795 242.398 83.2683 242.468 83.2683 242.539V245.259H76.7967V242.539C76.7967 242.468 76.7856 242.398 76.7639 242.333C76.7422 242.268 76.7104 242.208 76.6703 242.158C76.6303 242.108 76.5827 242.068 76.5304 242.041C76.478 242.014 76.4219 242 76.3653 242H66.0106C65.954 242 65.8979 242.014 65.8455 242.041C65.7932 242.068 65.7456 242.108 65.7056 242.158C65.6655 242.208 65.6337 242.268 65.612 242.333C65.5904 242.398 65.5792 242.468 65.5792 242.539V245.259H59.1076V242.539C59.1076 242.468 59.0964 242.398 59.0747 242.333C59.0531 242.268 59.0213 242.208 58.9812 242.158C58.9411 242.108 58.8936 242.068 58.8412 242.041C58.7889 242.014 58.7328 242 58.6761 242H48.3215C48.2649 242 48.2088 242.014 48.1564 242.041C48.1041 242.068 48.0565 242.108 48.0164 242.158C47.9764 242.208 47.9446 242.268 47.9229 242.333C47.9012 242.398 47.8901 242.468 47.8901 242.539V245.259H41.4184V242.539C41.4184 242.468 41.4073 242.398 41.3856 242.333C41.3639 242.268 41.3321 242.208 41.2921 242.158C41.252 242.108 41.2045 242.068 41.1521 242.041C41.0998 242.014 41.0437 242 40.987 242H30.6324C30.5757 242 30.5196 242.014 30.4673 242.041C30.4149 242.068 30.3674 242.108 30.3273 242.158C30.2872 242.208 30.2555 242.268 30.2338 242.333C30.2121 242.398 30.2009 242.468 30.201 242.539V245.259H10.3546C7.6084 245.259 4.97466 246.623 3.0328 249.051C1.09093 251.478 2.61632e-06 254.77 0 258.203V264.056C7.84896e-06 267.489 1.09094 270.781 3.03281 273.209C4.97467 275.636 7.6084 277 10.3546 277H354.645C357.392 277 360.025 275.636 361.967 273.209C363.909 270.781 365 267.489 365 264.056V258.203C365 254.77 363.909 251.478 361.967 249.051C360.025 246.623 357.392 245.259 354.645 245.259Z" fill="#3F3D56"/>
<path d="M80.5 219C73.0832 219 65.833 216.244 59.6661 211.079C53.4993 205.915 48.6928 198.574 45.8545 189.986C43.0162 181.398 42.2736 171.948 43.7206 162.831C45.1675 153.714 48.739 145.339 53.9835 138.766C59.228 132.193 65.9098 127.717 73.1841 125.903C80.4584 124.09 87.9984 125.02 94.8506 128.578C101.703 132.135 107.56 138.159 111.68 145.888C115.801 153.617 118 162.704 118 172C117.989 184.461 114.034 196.407 107.004 205.218C99.9739 214.03 90.4422 218.986 80.5 219ZM80.5 126.237C73.2784 126.237 66.2189 128.921 60.2144 133.949C54.2098 138.978 49.5298 146.125 46.7663 154.487C44.0027 162.849 43.2796 172.051 44.6884 180.928C46.0973 189.805 49.5749 197.959 54.6813 204.359C59.7878 210.76 66.2938 215.118 73.3766 216.884C80.4595 218.65 87.8011 217.743 94.473 214.28C101.145 210.816 106.847 204.95 110.86 197.425C114.872 189.899 117.013 181.051 117.013 172C117.002 159.867 113.152 148.235 106.307 139.656C99.4614 131.076 90.1805 126.251 80.5 126.237V126.237Z" fill="#3F3D56"/>
<path d="M415 20H289V21H415V20Z" fill="#3F3D56"/>
<path d="M561 345H199V346H561V345Z" fill="#3F3D56"/>
<path d="M246 340H232V357H246V340Z" fill="#05263B"/>
<path d="M253 346H238V326H253V346ZM238.652 345.13H252.348V326.87H238.652V345.13Z" fill="#3F3D56"/>
<path d="M406 14H392V31H406V14Z" fill="#05263B"/>
<path d="M415 21H397V0H415V21ZM397.783 20.087H414.217V0.913045H397.783V20.087Z" fill="#3F3D56"/>
<path d="M545 340H532V357H545V340Z" fill="#05263B"/>
<path d="M554 346H536V326H554V346ZM536.783 345.13H553.217V326.87H536.783V345.13Z" fill="#3F3D56"/>
<path d="M521 143.212H519.832V103.173C519.832 100.13 519.353 97.1166 518.422 94.3051C517.492 91.4936 516.127 88.9391 514.408 86.7872C512.688 84.6354 510.646 82.9285 508.399 81.7639C506.152 80.5994 503.744 80 501.312 80H433.52C431.088 80 428.679 80.5994 426.433 81.7639C424.186 82.9285 422.144 84.6354 420.424 86.7872C418.705 88.9391 417.34 91.4936 416.41 94.3051C415.479 97.1166 415 100.13 415 103.173V322.827C415 325.87 415.479 328.883 416.41 331.695C417.34 334.506 418.705 337.061 420.424 339.213C422.144 341.365 424.186 343.072 426.433 344.236C428.679 345.401 431.088 346 433.52 346H501.312C503.744 346 506.152 345.401 508.399 344.236C510.646 343.072 512.688 341.365 514.408 339.213C516.127 337.061 517.492 334.506 518.422 331.695C519.353 328.883 519.832 325.87 519.832 322.827V171.712H521V143.212Z" fill="#3F3D56"/>
<path d="M515 105.238V323.755C515.001 328.328 513.541 332.714 510.941 335.948C508.342 339.182 504.816 340.999 501.139 341H432.861C429.184 340.999 425.658 339.182 423.059 335.948C420.459 332.714 418.999 328.328 419 323.755V105.238C419 100.667 420.461 96.2823 423.06 93.0496C425.659 89.8168 429.185 88.0005 432.861 88H441.144C440.737 89.2437 440.581 90.593 440.692 91.929C440.802 93.265 441.175 94.5468 441.777 95.6614C442.38 96.776 443.193 97.6892 444.147 98.3206C445.1 98.952 446.163 99.2822 447.243 99.2821H486.171C487.251 99.2822 488.315 98.952 489.268 98.3206C490.221 97.6892 491.035 96.776 491.637 95.6614C492.239 94.5468 492.612 93.265 492.723 91.929C492.833 90.593 492.678 89.2437 492.27 88H501.139C504.815 88.0005 508.341 89.8168 510.94 93.0496C513.539 96.2823 515 100.667 515 105.238V105.238Z" fill="#05263B"/>
<path d="M478 232H458V240H478V232Z" fill="#3F3D56"/>
<path d="M502 174H433V177H502V174Z" fill="#3F3D56"/>
<path d="M502 184H433V187H502V184Z" fill="#3F3D56"/>
<path d="M502 194H433V197H502V194Z" fill="#3F3D56"/>
<path d="M502 204H433V207H502V204Z" fill="#3F3D56"/>
<path d="M502 215H433V218H502V215Z" fill="#3F3D56"/>
<path d="M470 131H458V145H470V131Z" fill="#F2F2F2"/>
<path d="M462 134V153H477V134H462ZM476.349 152.176H462.651V134.824H476.349V152.176Z" fill="#3F3D56"/>
<path opacity="0.1" d="M515 300.392V323.744C515.001 328.319 513.541 332.708 510.941 335.944C508.342 339.181 504.816 340.999 501.139 341H432.861C429.184 340.999 425.658 339.181 423.059 335.944C420.459 332.708 418.999 328.319 419 323.744V206L476.524 262.559L477.509 263.527L488.209 274.045L489.208 275.031L515 300.392Z" fill="black"/>
<path d="M462 335C474.15 335 484 322.688 484 307.5C484 292.312 474.15 280 462 280C449.85 280 440 292.312 440 307.5C440 322.688 449.85 335 462 335Z" fill="#F2F2F2"/>
<path d="M157 404C148.693 404 140.573 400.833 133.666 394.899C126.759 388.966 121.376 380.532 118.197 370.665C115.018 360.798 114.186 349.94 115.807 339.465C117.428 328.99 121.428 319.368 127.302 311.816C133.175 304.264 140.659 299.121 148.806 297.038C156.953 294.954 165.398 296.023 173.073 300.111C180.747 304.198 187.307 311.119 191.922 319.999C196.537 328.879 199 339.32 199 350C198.987 364.317 194.558 378.042 186.685 388.166C178.811 398.289 168.135 403.984 157 404ZM157 297.241C148.884 297.241 140.951 300.336 134.202 306.133C127.454 311.93 122.195 320.17 119.089 329.81C115.983 339.451 115.171 350.059 116.754 360.293C118.337 370.527 122.245 379.928 127.984 387.306C133.723 394.684 141.035 399.709 148.995 401.745C156.954 403.781 165.205 402.736 172.703 398.743C180.201 394.749 186.61 387.987 191.119 379.311C195.628 370.635 198.034 360.435 198.034 350C198.022 336.012 193.695 322.602 186.002 312.712C178.309 302.821 167.879 297.257 157 297.241V297.241Z" fill="#3F3D56"/>
<path d="M467.5 329C462.061 329 456.744 327.035 452.222 323.354C447.699 319.673 444.175 314.441 442.093 308.32C440.012 302.199 439.467 295.463 440.528 288.964C441.59 282.466 444.209 276.497 448.055 271.812C451.901 267.127 456.801 263.936 462.135 262.644C467.469 261.351 472.999 262.015 478.024 264.55C483.049 267.086 487.344 271.379 490.365 276.888C493.387 282.397 495 288.874 495 295.5C494.992 304.382 492.092 312.897 486.936 319.177C481.781 325.457 474.791 328.99 467.5 329V329ZM467.5 263.218C462.259 263.218 457.135 265.111 452.777 268.659C448.419 272.206 445.023 277.248 443.017 283.146C441.011 289.045 440.487 295.536 441.509 301.798C442.532 308.06 445.056 313.812 448.762 318.327C452.468 322.841 457.19 325.916 462.33 327.162C467.471 328.407 472.799 327.768 477.641 325.325C482.483 322.881 486.622 318.744 489.534 313.435C492.446 308.126 494 301.885 494 295.5C493.992 286.941 491.198 278.736 486.23 272.684C481.262 266.632 474.526 263.228 467.5 263.218Z" fill="#3F3D56"/>
</svg>
