<svg width="1440" height="325" viewBox="0 0 1440 325" fill="none" xmlns="http://www.w3.org/2000/svg">
<path d="M1440 325L1410 297.917C1380 270.833 1320 216.667 1260 184.167C1200 151.667 1140 140.833 1080 146.25C1020 151.667 960 173.333 900 157.083C840 140.833 780 86.6667 720 75.8333C660 65 600 97.5 540 124.583C480 151.667 420 173.333 360 200.417C300 227.5 240 260 180 243.75C120 227.5 60 162.5 0 119.167C-60 75.8333 -120 54.1667 -180 43.3333C-240 32.5 -300 32.5 -360 43.3333C-420 54.1667 -480 75.8333 -540 81.25C-600 86.6667 -660 75.8333 -720 102.917C-780 130 -840 195 -900 227.5C-960 260 -1020 260 -1080 254.583C-1140 249.167 -1200 238.333 -1260 200.417C-1320 162.5 -1380 97.5 -1440 81.25C-1500 65 -1560 97.5 -1620 113.75C-1680 130 -1740 130 -1800 113.75C-1860 97.5 -1920 65 -1980 75.8333C-2040 86.6667 -2100 140.833 -2160 167.917C-2220 195 -2280 195 -2340 173.333C-2400 151.667 -2460 108.333 -2520 102.917C-2580 97.5 -2640 130 -2700 151.667C-2760 173.333 -2820 184.167 -2850 189.583L-2880 195V0H-2850C-2820 0 -2760 0 -2700 0C-2640 0 -2580 0 -2520 0C-2460 0 -2400 0 -2340 0C-2280 0 -2220 0 -2160 0C-2100 0 -2040 0 -1980 0C-1920 0 -1860 0 -1800 0C-1740 0 -1680 0 -1620 0C-1560 0 -1500 0 -1440 0C-1380 0 -1320 0 -1260 0C-1200 0 -1140 0 -1080 0C-1020 0 -960 0 -900 0C-840 0 -780 0 -720 0C-660 0 -600 0 -540 0C-480 0 -420 0 -360 0C-300 0 -240 0 -180 0C-120 0 -60 0 0 0C60 0 120 0 180 0C240 0 300 0 360 0C420 0 480 0 540 0C600 0 660 0 720 0C780 0 840 0 900 0C960 0 1020 0 1080 0C1140 0 1200 0 1260 0C1320 0 1380 0 1410 0H1440V325Z" fill="url(#paint0_linear_0_1)"/>
<path opacity="0.9" d="M1440 32.5H1410C1380 32.5 1320 32.5 1260 70.4167C1200 108.333 1140 184.167 1080 211.25C1020 238.333 960 216.667 900 227.5C840 238.333 780 281.667 720 254.583C660 227.5 600 130 540 102.917C480 75.8333 420 119.167 360 130C300 140.833 240 119.167 180 113.75C120 108.333 60 119.167 0 124.583C-60 130 -120 130 -180 157.083C-240 184.167 -300 238.333 -360 238.333C-420 238.333 -480 184.167 -540 151.667C-600 119.167 -660 108.333 -720 102.917C-780 97.5 -840 97.5 -900 113.75C-960 130 -1020 162.5 -1080 200.417C-1140 238.333 -1200 281.667 -1260 281.667C-1320 281.667 -1380 238.333 -1440 200.417C-1500 162.5 -1560 130 -1620 102.917C-1680 75.8333 -1740 54.1667 -1800 81.25C-1860 108.333 -1920 184.167 -1980 195C-2040 205.833 -2100 151.667 -2160 157.083C-2220 162.5 -2280 227.5 -2340 243.75C-2400 260 -2460 227.5 -2520 200.417C-2580 173.333 -2640 151.667 -2700 130C-2760 108.333 -2820 86.6667 -2850 75.8333L-2880 65V0H-2850C-2820 0 -2760 0 -2700 0C-2640 0 -2580 0 -2520 0C-2460 0 -2400 0 -2340 0C-2280 0 -2220 0 -2160 0C-2100 0 -2040 0 -1980 0C-1920 0 -1860 0 -1800 0C-1740 0 -1680 0 -1620 0C-1560 0 -1500 0 -1440 0C-1380 0 -1320 0 -1260 0C-1200 0 -1140 0 -1080 0C-1020 0 -960 0 -900 0C-840 0 -780 0 -720 0C-660 0 -600 0 -540 0C-480 0 -420 0 -360 0C-300 0 -240 0 -180 0C-120 0 -60 0 0 0C60 0 120 0 180 0C240 0 300 0 360 0C420 0 480 0 540 0C600 0 660 0 720 0C780 0 840 0 900 0C960 0 1020 0 1080 0C1140 0 1200 0 1260 0C1320 0 1380 0 1410 0H1440V32.5Z" fill="url(#paint1_linear_0_1)"/>
<path opacity="0.8" d="M1440 292.5L1410 249.167C1380 205.833 1320 119.167 1260 97.5C1200 75.8333 1140 119.167 1080 130C1020 140.833 960 119.167 900 113.75C840 108.333 780 119.167 720 157.083C660 195 600 260 540 270.833C480 281.667 420 238.333 360 189.583C300 140.833 240 86.6667 180 86.6667C120 86.6667 60 140.833 0 173.333C-60 205.833 -120 216.667 -180 205.833C-240 195 -300 162.5 -360 178.75C-420 195 -480 260 -540 265.417C-600 270.833 -660 216.667 -720 189.583C-780 162.5 -840 162.5 -900 162.5C-960 162.5 -1020 162.5 -1080 146.25C-1140 130 -1200 97.5 -1260 81.25C-1320 65 -1380 65 -1440 108.333C-1500 151.667 -1560 238.333 -1620 276.25C-1680 314.167 -1740 303.333 -1800 265.417C-1860 227.5 -1920 162.5 -1980 130C-2040 97.5 -2100 97.5 -2160 102.917C-2220 108.333 -2280 119.167 -2340 108.333C-2400 97.5 -2460 65 -2520 54.1667C-2580 43.3333 -2640 54.1667 -2700 92.0833C-2760 130 -2820 195 -2850 227.5L-2880 260V0H-2850C-2820 0 -2760 0 -2700 0C-2640 0 -2580 0 -2520 0C-2460 0 -2400 0 -2340 0C-2280 0 -2220 0 -2160 0C-2100 0 -2040 0 -1980 0C-1920 0 -1860 0 -1800 0C-1740 0 -1680 0 -1620 0C-1560 0 -1500 0 -1440 0C-1380 0 -1320 0 -1260 0C-1200 0 -1140 0 -1080 0C-1020 0 -960 0 -900 0C-840 0 -780 0 -720 0C-660 0 -600 0 -540 0C-480 0 -420 0 -360 0C-300 0 -240 0 -180 0C-120 0 -60 0 0 0C60 0 120 0 180 0C240 0 300 0 360 0C420 0 480 0 540 0C600 0 660 0 720 0C780 0 840 0 900 0C960 0 1020 0 1080 0C1140 0 1200 0 1260 0C1320 0 1380 0 1410 0H1440V292.5Z" fill="url(#paint2_linear_0_1)"/>
<defs>
<linearGradient id="paint0_linear_0_1" x1="1440" y1="0" x2="1440" y2="325" gradientUnits="userSpaceOnUse">
<stop stop-color="#192E41"/>
<stop offset="1" stop-color="#05263B"/>
</linearGradient>
<linearGradient id="paint1_linear_0_1" x1="1440" y1="0" x2="1440" y2="281.667" gradientUnits="userSpaceOnUse">
<stop stop-color="#0D659D"/>
<stop offset="1" stop-color="#BBC8DE"/>
</linearGradient>
<linearGradient id="paint2_linear_0_1" x1="1440" y1="0" x2="1440" y2="299.844" gradientUnits="userSpaceOnUse">
<stop stop-color="#192E41"/>
<stop offset="1" stop-color="#0D659D"/>
</linearGradient>
</defs>
</svg>
