<svg width="476" height="381" viewBox="0 0 476 381" fill="none" xmlns="http://www.w3.org/2000/svg">
<path d="M417.959 369.717L408.067 369.716L403.362 331.365L417.961 331.366L417.959 369.717Z" fill="#FFB6B6"/>
<path d="M418.307 380.089L387.889 380.088V379.701C387.89 373.129 393.19 367.801 399.729 367.801H399.729L405.285 363.564L415.652 367.801L418.307 367.801L418.307 380.089V380.089Z" fill="#2F2E41"/>
<path d="M374.106 369.717L364.215 369.716L359.51 331.365L374.108 331.366L374.106 369.717Z" fill="#FFB6B6"/>
<path d="M374.454 380.089L344.037 380.088V379.701C344.037 373.129 349.338 367.801 355.876 367.801H355.877L361.433 363.564L371.8 367.801L374.455 367.801L374.454 380.089V380.089Z" fill="#2F2E41"/>
<path d="M369.393 155.693L426.461 156.9C426.461 156.9 436.72 173.807 428.887 197.658L429.765 204.3L426.161 214.565L424.358 245.964L426.161 250.794L424.959 259.851C424.959 259.851 429.765 319.63 417.751 349.821L403.333 349.217L397.927 270.447L400.931 264.682L400.33 262.267L393.121 226.038L385.913 244.756V255.156L379.305 262.871C379.305 262.871 381.708 334.121 375.1 348.613H358.959L352.873 252.002L358.88 195.847L357.679 192.224L359.481 190.412L358.28 184.374L369.393 155.693L369.393 155.693V155.693Z" fill="#2F2E41"/>
<path d="M393.722 45.4954L411.143 41.2686L415.948 52.7412C415.948 52.7412 440.812 66.0252 442.014 84.1398C442.014 84.1398 445.383 98.6315 442.38 105.274C439.376 111.916 426.761 133.049 426.761 133.049C426.761 133.049 438.175 169.882 435.171 171.694C432.168 173.505 360.682 169.882 360.682 166.259C360.682 162.636 372.579 124.596 372.579 124.596L375.1 59.3832L391.319 53.345L393.722 45.4954L393.722 45.4954V45.4954Z" fill="#3F3D56"/>
<path d="M440.165 194.135C436.518 192.288 435.052 187.82 436.889 184.155C437.074 183.786 437.292 183.445 437.526 183.122L427.832 116.317L441.253 116.749L448.273 181.84C450.817 184.009 451.661 187.715 450.093 190.842C448.256 194.507 443.811 195.981 440.165 194.135H440.165V194.135Z" fill="#FFB6B6"/>
<path d="M312.825 162.605C311.357 158.775 313.255 154.475 317.065 152.999C317.448 152.851 317.837 152.745 318.227 152.664L355.674 96.6197L365.33 105.998L327.047 158.968C327.483 162.293 325.632 165.608 322.381 166.867C318.571 168.343 314.293 166.435 312.825 162.605V162.605Z" fill="#FFB6B6"/>
<path d="M415.71 99.4674C411.918 86.3732 418.216 73.0139 431.783 73.0784C435.705 73.097 438.751 74.2409 439.596 77.4069C442.551 88.4883 444.162 105.216 444.162 105.216L447.668 123.025L445.545 126.723L449.972 138.658L447.824 144.305L447.36 173.139L436.547 172.535L424.633 150.553L420.078 147.831C420.078 147.831 423.736 112.29 416.46 102.056L415.71 99.4674H415.71V99.4674Z" fill="#3F3D56"/>
<path d="M367.276 67.2423C373.599 55.176 389.786 52.3179 399.5 61.8386C402.308 64.5904 403.709 67.5406 402.128 70.4075C396.595 80.4418 383.769 91.2457 383.769 91.2457L367.974 116.769L363.891 117.946L358.826 129.622L347.973 142.448L333.597 150.069L325.187 141.615L326.973 130.749L348.615 101.763C348.615 101.763 364.187 82.0695 366.026 69.6281L367.276 67.2423V67.2423V67.2423Z" fill="#3F3D56"/>
<path d="M397.032 41.9663C397.43 42.0144 397.827 42.0504 398.221 42.0685C399.449 42.1362 400.662 42.0658 401.831 41.8666C405.383 41.2944 408.609 39.6035 411.099 37.1238C413.731 34.5072 415.533 31.0149 416.02 27.0391C417.16 17.6544 410.512 9.10561 401.176 7.95891C391.973 6.82202 383.585 13.2917 382.246 22.4609C382.224 22.6029 382.203 22.7388 382.188 22.8801C381.048 32.2708 387.689 40.8142 397.032 41.9663V41.9663V41.9663Z" fill="#FFB6B6"/>
<path d="M378.406 21.8327C380.825 23.0349 384.777 19.2554 386.29 21.43C386.536 20.96 386.807 20.5056 387.076 20.0758C387.318 19.6912 387.666 18.8703 388.067 18.7297C387.559 19.9628 387.671 21.6329 388.199 23.0637C390.585 23.9597 393.707 21.9764 395.915 19.6304C399.383 15.9519 405.044 25.3847 403.705 30.2663C405.409 28.1752 409.106 29.3546 410.359 31.7456C411.611 34.1305 409.495 36.0415 409.043 38.7018L412.458 38.2658C414.613 36.1563 414.462 32.6016 416.236 30.1567C419.2 26.065 420.349 21.8902 418.12 17.6674C416.144 13.9335 415.959 9.10117 412.334 6.94851C413.918 6.16996 408.284 7.38624 409.789 4.84904C411.3 2.31716 403.244 2.00986 402.718 3.3663C400.416 0.596842 398.094 -1.22912 395.262 0.99001C392.481 3.17327 392.769 5.46814 389.503 5.26248C387.97 5.16702 388.138 8.03959 387.227 9.29197C386.321 10.5377 382.8 11.3374 382.628 11.2041C381.698 10.4726 378.534 16.6994 378.534 16.6994C378.534 16.6994 375.968 20.6145 378.406 21.8327H378.406V21.8327Z" fill="#2F2E41"/>
<path d="M165.349 131C222.594 131 269 177.562 269 235C269 292.438 222.594 339 165.349 339C108.104 339 28.8797 282.053 61.6982 235C94.5167 187.947 108.104 131 165.349 131V131Z" fill="#F2F2F2"/>
<path d="M304 135C302.897 135 302 135.765 302 136.706V191.294C302 192.235 302.897 193 304 193C305.103 193 306 192.235 306 191.294V136.706C306 135.765 305.103 135 304 135Z" fill="#3F3D56"/>
<path d="M21 95C19.897 95 19 95.7624 19 96.7V110.3C19 111.238 19.897 112 21 112C22.103 112 23 111.238 23 110.3V96.7C23 95.7624 22.103 95 21 95Z" fill="#3F3D56"/>
<path d="M21 135C19.897 135 19 135.769 19 136.714V163.286C19 164.231 19.897 165 21 165C22.103 165 23 164.231 23 163.286V136.714C23 135.769 22.103 135 21 135Z" fill="#3F3D56"/>
<path d="M21 173C19.897 173 19 173.743 19 174.657V200.343C19 201.257 19.897 202 21 202C22.103 202 23 201.257 23 200.343V174.657C23 173.743 22.103 173 21 173Z" fill="#3F3D56"/>
<path d="M172 41C170.897 41 170 41.7688 170 42.7143V69.2857C170 70.2312 170.897 71 172 71C173.103 71 174 70.2312 174 69.2857V42.7143C174 41.7688 173.103 41 172 41V41Z" fill="#3F3D56"/>
<path d="M430.101 366.323C431.842 366.432 432.803 364.259 431.487 362.992L431.356 362.469C431.373 362.427 431.39 362.385 431.408 362.343C433.168 358.125 439.133 358.154 440.878 362.378C442.427 366.128 444.399 369.884 444.884 373.849C445.102 375.599 445.004 377.382 444.618 379.099C448.247 371.131 450.157 362.429 450.157 353.678C450.157 351.48 450.037 349.281 449.792 347.088C449.591 345.294 449.313 343.511 448.954 341.744C447.012 332.195 442.806 323.1 436.739 315.503C433.822 313.901 431.39 311.396 429.921 308.393C429.393 307.31 428.98 306.145 428.784 304.958C429.116 305.002 430.035 299.921 429.785 299.61C430.248 298.904 431.075 298.553 431.581 297.865C434.093 294.441 437.554 295.039 439.362 299.692C443.222 301.65 443.259 304.898 440.89 308.021C439.384 310.008 439.176 312.697 437.854 314.825C437.99 315 438.132 315.17 438.268 315.345C440.762 318.56 442.92 322.017 444.739 325.649C444.225 321.613 444.983 316.75 446.277 313.616C447.75 310.045 450.51 307.037 452.941 303.95C455.861 300.242 461.848 301.86 462.363 306.561C462.368 306.607 462.373 306.652 462.377 306.698C462.016 306.902 461.663 307.12 461.317 307.35C459.346 308.66 460.027 311.731 462.363 312.093L462.415 312.101C462.285 313.408 462.062 314.705 461.735 315.979C464.854 328.101 458.121 332.516 448.508 332.715C448.296 332.824 448.089 332.934 447.877 333.037C448.851 335.794 449.629 338.622 450.206 341.487C450.723 344.02 451.082 346.579 451.283 349.15C451.533 352.393 451.512 355.653 451.239 358.89L451.256 358.776C451.947 355.21 453.873 351.879 456.67 349.571C460.836 346.131 466.722 344.864 471.217 342.099C473.381 340.768 476.153 342.488 475.775 345.009L475.757 345.13C475.088 345.403 474.435 345.721 473.804 346.076C473.443 346.281 473.089 346.498 472.743 346.728C470.773 348.038 471.454 351.109 473.789 351.472L473.842 351.48C473.88 351.485 473.913 351.491 473.951 351.496C472.803 354.236 471.203 356.779 469.201 358.973C467.251 369.555 458.876 370.559 449.917 367.477H449.912C448.932 371.765 447.501 375.955 445.662 379.947H430.482C430.427 379.777 430.378 379.602 430.329 379.433C431.733 379.52 433.148 379.438 434.53 379.181C433.403 377.792 432.277 376.392 431.151 375.003C431.124 374.975 431.102 374.948 431.08 374.921C430.509 374.21 429.932 373.504 429.361 372.793L429.36 372.792C429.325 370.61 429.585 368.434 430.101 366.323L430.101 366.323L430.101 366.323H430.101Z" fill="#F2F2F2"/>
<path d="M0 379.992C0 380.551 0.446511 381 1.00254 381H474.69C475.246 381 475.692 380.551 475.692 379.992C475.692 379.434 475.246 378.985 474.69 378.985H1.00254C0.446511 378.985 0 379.434 0 379.992Z" fill="#CCCCCC"/>
<path d="M120.157 228H62V226.292H120.157C125.209 226.292 129.32 222.113 129.32 216.976V177H131V216.976C131 223.054 126.136 228 120.157 228H120.157Z" fill="black"/>
<path d="M231 314H99V315H231V314Z" fill="black"/>
<path d="M315.356 216.323H244.515C240.692 216.323 237.582 213.197 237.582 209.354V139.016C237.582 135.173 240.692 132.047 244.515 132.047H315.356C319.179 132.047 322.289 135.173 322.289 139.016V209.354C322.289 213.197 319.179 216.323 315.356 216.323Z" fill="#E6E6E6"/>
<path d="M257.708 134.123C247.733 134.123 239.647 142.251 239.647 152.277V207.862C239.647 211.388 242.491 214.247 246 214.247H289.317C306.386 214.247 320.223 200.338 320.223 183.181V140.508C320.223 136.982 317.379 134.123 313.871 134.123H257.708V134.123V134.123Z" fill="white"/>
<path d="M298.908 154.564H260.814C260.087 154.564 259.495 153.969 259.495 153.239C259.495 152.508 260.087 151.914 260.814 151.914H298.908C299.635 151.914 300.226 152.508 300.226 153.239C300.226 153.969 299.635 154.564 298.908 154.564Z" fill="#E6E6E6"/>
<path d="M298.908 182.815H260.814C260.087 182.815 259.495 182.221 259.495 181.49C259.495 180.76 260.087 180.166 260.814 180.166H298.908C299.635 180.166 300.226 180.76 300.226 181.49C300.226 182.221 299.635 182.815 298.908 182.815Z" fill="#E6E6E6"/>
<path d="M314.378 168.699H245.344C244.617 168.699 244.026 168.104 244.026 167.374C244.026 166.643 244.617 166.049 245.344 166.049H314.378C315.105 166.049 315.696 166.643 315.696 167.374C315.696 168.104 315.105 168.699 314.378 168.699V168.699Z" fill="#E6E6E6"/>
<path d="M315.083 194.302H290.144C289.418 194.302 288.826 193.708 288.826 192.977C288.826 192.247 289.418 191.653 290.144 191.653H315.083C315.81 191.653 316.401 192.247 316.401 192.977C316.401 193.708 315.81 194.302 315.083 194.302Z" fill="#E6E6E6"/>
<path d="M166.557 356.468H110.304C107.268 356.468 104.799 353.986 104.799 350.935V295.081C104.799 292.03 107.268 289.547 110.304 289.547H166.557C169.592 289.547 172.062 292.03 172.062 295.081V350.935C172.062 353.986 169.592 356.468 166.557 356.468H166.557V356.468Z" fill="#E6E6E6"/>
<path d="M120.78 291.196C112.86 291.196 106.439 297.65 106.439 305.611V349.75C106.439 352.55 108.697 354.82 111.483 354.82H145.88C159.434 354.82 170.422 343.775 170.422 330.151V296.266C170.422 293.466 168.164 291.196 165.378 291.196H120.78L120.78 291.196H120.78Z" fill="white"/>
<path d="M153.497 307.427H123.247C122.67 307.427 122.2 306.955 122.2 306.375C122.2 305.795 122.67 305.323 123.247 305.323H153.497C154.074 305.323 154.543 305.795 154.543 306.375C154.543 306.955 154.074 307.427 153.497 307.427Z" fill="#E6E6E6"/>
<path d="M153.497 329.861H123.247C122.67 329.861 122.2 329.389 122.2 328.809C122.2 328.229 122.67 327.757 123.247 327.757H153.497C154.074 327.757 154.543 328.229 154.543 328.809C154.543 329.389 154.074 329.861 153.497 329.861Z" fill="#E6E6E6"/>
<path d="M165.78 318.652H110.963C110.386 318.652 109.916 318.18 109.916 317.6C109.916 317.019 110.386 316.548 110.963 316.548H165.78C166.358 316.548 166.827 317.019 166.827 317.6C166.827 318.18 166.358 318.652 165.78 318.652Z" fill="#E6E6E6"/>
<path d="M166.34 338.983H146.537C145.96 338.983 145.49 338.511 145.49 337.931C145.49 337.35 145.96 336.879 146.537 336.879H166.34C166.917 336.879 167.387 337.35 167.387 337.931C167.387 338.511 166.917 338.983 166.34 338.983Z" fill="#E6E6E6"/>
<path d="M127.24 176.66H85.6386C83.3936 176.66 81.5671 174.824 81.5671 172.567V131.261C81.5671 129.004 83.3936 127.169 85.6386 127.169H127.24C129.485 127.169 131.311 129.004 131.311 131.261V172.567C131.311 174.824 129.485 176.66 127.24 176.66V176.66V176.66Z" fill="#E6E6E6"/>
<path d="M93.3861 128.388C87.5287 128.388 82.7803 133.161 82.7803 139.049V171.691C82.7803 173.762 84.4504 175.44 86.5105 175.44H111.949C121.972 175.44 130.098 167.272 130.098 157.197V132.137C130.098 130.067 128.428 128.388 126.368 128.388H93.3861V128.388L93.3861 128.388Z" fill="white"/>
<path d="M117.581 140.392H95.2101C94.7833 140.392 94.436 140.043 94.436 139.614C94.436 139.185 94.7833 138.836 95.2101 138.836H117.581C118.008 138.836 118.355 139.185 118.355 139.614C118.355 140.043 118.008 140.392 117.581 140.392Z" fill="#E6E6E6"/>
<path d="M117.581 156.982H95.2101C94.7833 156.982 94.436 156.633 94.436 156.204C94.436 155.775 94.7833 155.426 95.2101 155.426H117.581C118.008 155.426 118.355 155.775 118.355 156.204C118.355 156.633 118.008 156.982 117.581 156.982Z" fill="#E6E6E6"/>
<path d="M126.666 148.692H86.1256C85.6988 148.692 85.3516 148.343 85.3516 147.914C85.3516 147.485 85.6988 147.136 86.1256 147.136H126.666C127.093 147.136 127.44 147.485 127.44 147.914C127.44 148.343 127.093 148.692 126.666 148.692Z" fill="#E6E6E6"/>
<path d="M127.08 163.728H112.434C112.008 163.728 111.66 163.379 111.66 162.95C111.66 162.521 112.008 162.172 112.434 162.172H127.08C127.507 162.172 127.854 162.521 127.854 162.95C127.854 163.379 127.507 163.728 127.08 163.728Z" fill="#E6E6E6"/>
<path d="M248.5 229C253.194 229 257 225.194 257 220.5C257 215.806 253.194 212 248.5 212C243.806 212 240 215.806 240 220.5C240 225.194 243.806 229 248.5 229Z" fill="black"/>
<path d="M129.5 186C134.194 186 138 182.194 138 177.5C138 172.806 134.194 169 129.5 169C124.806 169 121 172.806 121 177.5C121 182.194 124.806 186 129.5 186Z" fill="black"/>
<path d="M170.5 302C175.194 302 179 298.194 179 293.5C179 288.806 175.194 285 170.5 285C165.806 285 162 288.806 162 293.5C162 298.194 165.806 302 170.5 302Z" fill="black"/>
<path d="M188.498 66.7709C194.297 66.7709 198.997 62.1454 198.997 56.4396C198.997 50.7338 194.297 46.1083 188.498 46.1083C182.699 46.1083 177.999 50.7338 177.999 56.4396C177.999 62.1454 182.699 66.7709 188.498 66.7709Z" fill="#F2F2F2"/>
<path d="M272.667 52.9052H216.153C214.214 52.9052 212.637 51.3196 212.637 49.3708C212.637 47.422 214.214 45.8364 216.153 45.8364H272.667C274.606 45.8364 276.183 47.422 276.183 49.3708C276.183 51.3196 274.606 52.9052 272.667 52.9052V52.9052Z" fill="#F2F2F2"/>
<path d="M316.771 64.8677H216.153C214.214 64.8677 212.637 63.2821 212.637 61.3333C212.637 59.3845 214.214 57.799 216.153 57.799H316.771C318.71 57.799 320.287 59.3845 320.287 61.3333C320.287 63.2821 318.71 64.8677 316.771 64.8677Z" fill="#F2F2F2"/>
<path d="M36.527 110.192C40.2798 110.192 43.322 107.198 43.322 103.505C43.322 99.8126 40.2798 96.8191 36.527 96.8191C32.7742 96.8191 29.7319 99.8126 29.7319 103.505C29.7319 107.198 32.7742 110.192 36.527 110.192Z" fill="#F2F2F2"/>
<path d="M90.9999 101.218H54.4248C53.1701 101.218 52.1492 100.192 52.1492 98.9305C52.1492 97.6693 53.1701 96.6431 54.4248 96.6431H90.9999C92.2546 96.6431 93.2755 97.6693 93.2755 98.9305C93.2755 100.192 92.2546 101.218 90.9999 101.218H90.9999Z" fill="#F2F2F2"/>
<path d="M119.543 108.96H54.4248C53.1701 108.96 52.1492 107.934 52.1492 106.673C52.1492 105.411 53.1701 104.385 54.4248 104.385H119.543C120.798 104.385 121.819 105.411 121.819 106.673C121.819 107.934 120.798 108.96 119.543 108.96Z" fill="#F2F2F2"/>
<path d="M240.394 348.136C244.146 348.136 247.189 345.143 247.189 341.45C247.189 337.757 244.146 334.764 240.394 334.764C236.641 334.764 233.599 337.757 233.599 341.45C233.599 345.143 236.641 348.136 240.394 348.136Z" fill="#F2F2F2"/>
<path d="M294.867 339.163H258.292C257.037 339.163 256.016 338.136 256.016 336.875C256.016 335.614 257.037 334.588 258.292 334.588H294.867C296.121 334.588 297.142 335.614 297.142 336.875C297.142 338.136 296.121 339.163 294.867 339.163V339.163Z" fill="#F2F2F2"/>
<path d="M323.41 346.905H258.292C257.037 346.905 256.016 345.878 256.016 344.617C256.016 343.356 257.037 342.33 258.292 342.33H323.41C324.665 342.33 325.686 343.356 325.686 344.617C325.686 345.878 324.665 346.905 323.41 346.905V346.905Z" fill="#F2F2F2"/>
<path d="M159 132H157V213H159V132Z" fill="#E6E6E6"/>
<path d="M158 218C160.761 218 163 215.538 163 212.5C163 209.462 160.761 207 158 207C155.239 207 153 209.462 153 212.5C153 215.538 155.239 218 158 218Z" fill="#E6E6E6"/>
<path d="M234.5 276C237.538 276 240 273.761 240 271C240 268.239 237.538 266 234.5 266C231.462 266 229 268.239 229 271C229 273.761 231.462 276 234.5 276Z" fill="#E6E6E6"/>
<path d="M98 207C100.761 207 103 204.538 103 201.5C103 198.462 100.761 196 98 196C95.2386 196 93 198.462 93 201.5C93 204.538 95.2386 207 98 207Z" fill="#E6E6E6"/>
<path d="M96.1946 201.516L68.5522 202.357L68.6033 204.051L96.2456 203.209L96.1946 201.516Z" fill="#E6E6E6"/>
<path d="M276 290H234V271H235.688V288.346H276V290Z" fill="#E6E6E6"/>
<path d="M96 262C98.7614 262 101 259.761 101 257C101 254.239 98.7614 252 96 252C93.2386 252 91 254.239 91 257C91 259.761 93.2386 262 96 262Z" fill="#E6E6E6"/>
<path d="M137 276H95V257H96.6882V274.346H137V276Z" fill="#E6E6E6"/>
<path d="M265 238H64V239H265V238Z" fill="#E6E6E6"/>
</svg>
