<svg width="124" height="32" viewBox="0 0 124 32" fill="none" xmlns="http://www.w3.org/2000/svg">
<rect width="124" height="32" rx="5" fill="#0D659D" fill-opacity="0.59"/>
<path d="M38.0977 8.87305L33.8594 24H31.584L28.5371 13.1016C28.4004 12.6068 28.319 12.0859 28.293 11.5391H28.2539C28.2148 12.0794 28.1237 12.5938 27.9805 13.082L24.9043 24H22.6484L18.2637 8.87305H20.4219L23.5078 20.2988C23.6445 20.8132 23.7259 21.3307 23.752 21.8516H23.8105C23.8431 21.4609 23.9505 20.9434 24.1328 20.2988L27.4043 8.87305H29.3281L32.4531 20.3867C32.5573 20.7643 32.6419 21.2461 32.707 21.832H32.7461C32.7786 21.4089 32.873 20.9141 33.0293 20.3477L35.998 8.87305H38.0977ZM48.8594 19.0879H41.3008C41.3333 20.2402 41.6491 21.1322 42.248 21.7637C42.847 22.3887 43.6836 22.7012 44.7578 22.7012C45.9688 22.7012 47.0788 22.3138 48.0879 21.5391V23.248C47.1374 23.9186 45.8776 24.2539 44.3086 24.2539C42.7461 24.2539 41.5254 23.7591 40.6465 22.7695C39.7741 21.7799 39.3379 20.4062 39.3379 18.6484C39.3379 16.9948 39.8164 15.6309 40.7734 14.5566C41.737 13.4824 42.9316 12.9453 44.3574 12.9453C45.7702 12.9453 46.8737 13.401 47.668 14.3125C48.4622 15.2174 48.8594 16.487 48.8594 18.1211V19.0879ZM46.9453 17.5547C46.9388 16.5781 46.7077 15.8229 46.252 15.2891C45.7962 14.7552 45.1549 14.4883 44.3281 14.4883C43.5664 14.4883 42.9056 14.7715 42.3457 15.3379C41.7923 15.9043 41.444 16.6432 41.3008 17.5547H46.9453ZM51.3984 24V8.01367H53.3125V24H51.3984ZM64.2012 23.5117C63.3743 24.0065 62.3783 24.2539 61.2129 24.2539C59.6504 24.2539 58.3939 23.7526 57.4434 22.75C56.4928 21.7474 56.0176 20.4486 56.0176 18.8535C56.0176 17.0827 56.5286 15.6569 57.5508 14.5762C58.5794 13.4889 59.9531 12.9453 61.6719 12.9453C62.6615 12.9453 63.5078 13.1211 64.2109 13.4727V15.3672C63.4492 14.8073 62.6029 14.5273 61.6719 14.5273C60.5781 14.5273 59.6862 14.9082 58.9961 15.6699C58.3125 16.4251 57.9707 17.4342 57.9707 18.6973C57.9707 19.9408 58.293 20.9141 58.9375 21.6172C59.5885 22.3203 60.4642 22.6719 61.5645 22.6719C62.4954 22.6719 63.3743 22.3659 64.2012 21.7539V23.5117ZM66.0566 18.7168C66.0566 16.9329 66.5547 15.5267 67.5508 14.498C68.5469 13.4629 69.8978 12.9453 71.6035 12.9453C73.2246 12.9453 74.4941 13.4434 75.4121 14.4395C76.3366 15.429 76.7988 16.7995 76.7988 18.5508C76.7988 20.2565 76.3073 21.6335 75.3242 22.6816C74.3411 23.7298 73.0228 24.2539 71.3691 24.2539C69.7546 24.2539 68.4655 23.7461 67.502 22.7305C66.5384 21.7148 66.0566 20.377 66.0566 18.7168ZM68.0098 18.6582C68.0098 19.9017 68.3223 20.8815 68.9473 21.5977C69.5788 22.3138 70.4251 22.6719 71.4863 22.6719C72.5801 22.6719 73.4134 22.3236 73.9863 21.627C74.5592 20.9238 74.8457 19.918 74.8457 18.6094C74.8457 17.2943 74.5592 16.2852 73.9863 15.582C73.4134 14.8789 72.5801 14.5273 71.4863 14.5273C70.4121 14.5273 69.5625 14.8952 68.9375 15.6309C68.319 16.3665 68.0098 17.3757 68.0098 18.6582ZM95.041 24H93.127V17.7988C93.127 16.627 92.9447 15.7904 92.5801 15.2891C92.2155 14.7812 91.6165 14.5273 90.7832 14.5273C90.0801 14.5273 89.4779 14.8561 88.9766 15.5137C88.4753 16.1712 88.2246 16.9492 88.2246 17.8477V24H86.3105V17.6035C86.3105 15.5527 85.5195 14.5273 83.9375 14.5273C83.2083 14.5273 82.6029 14.8398 82.1211 15.4648C81.6458 16.0898 81.4082 16.8874 81.4082 17.8574V24H79.4941V13.1992H81.4082V14.9082H81.4473C82.2155 13.5996 83.3385 12.9453 84.8164 12.9453C85.5391 12.9453 86.1771 13.1439 86.7305 13.541C87.2839 13.9382 87.668 14.4753 87.8828 15.1523C88.6836 13.681 89.8815 12.9453 91.4766 12.9453C93.8529 12.9453 95.041 14.4102 95.041 17.3398V24ZM107.043 19.0879H99.4844C99.5169 20.2402 99.8327 21.1322 100.432 21.7637C101.031 22.3887 101.867 22.7012 102.941 22.7012C104.152 22.7012 105.262 22.3138 106.271 21.5391V23.248C105.321 23.9186 104.061 24.2539 102.492 24.2539C100.93 24.2539 99.709 23.7591 98.8301 22.7695C97.9577 21.7799 97.5215 20.4062 97.5215 18.6484C97.5215 16.9948 98 15.6309 98.957 14.5566C99.9206 13.4824 101.115 12.9453 102.541 12.9453C103.954 12.9453 105.057 13.401 105.852 14.3125C106.646 15.2174 107.043 16.487 107.043 18.1211V19.0879ZM105.129 17.5547C105.122 16.5781 104.891 15.8229 104.436 15.2891C103.98 14.7552 103.339 14.4883 102.512 14.4883C101.75 14.4883 101.089 14.7715 100.529 15.3379C99.9759 15.9043 99.6276 16.6432 99.4844 17.5547H105.129Z" fill="white"/>
</svg>
